<svg width="360" height="260" viewBox="0 0 360 260" fill="none" xmlns="http://www.w3.org/2000/svg">
<g clip-path="url(#clip0_1600_10522)">
<rect width="360" height="260" rx="20" fill="#000319"/>
<g clip-path="url(#clip1_1600_10522)">
<g clip-path="url(#clip2_1600_10522)">
<g clip-path="url(#clip3_1600_10522)">
<g clip-path="url(#clip4_1600_10522)">
<path d="M157.15 0H134.431V23.602M157.15 0V23.602H179.868M157.15 0H179.868M134.431 23.602H157.149V47.2039V70.8059V94.4078V118.01V141.612V165.214V188.816V212.418V236.02V259.622V283.224H179.868M134.431 23.602V47.2039M179.868 0V23.602M179.868 0H202.587M179.868 23.602H202.587M179.868 23.602V47.2039M134.431 47.2039H157.15H179.868M134.431 47.2039V70.8059M202.587 0V23.602M202.587 0H225.305M202.587 23.602H225.305M202.587 23.602L202.586 47.2039M179.868 47.2039H202.586M179.868 47.2039V70.8059M225.305 0V23.602M225.305 0H248.025M225.305 23.602H248.025M225.305 23.602V47.2039M202.586 47.2039H225.305M202.586 47.2039V70.8059M248.025 0V23.602M248.025 0H270.741M248.025 23.602H270.741M248.025 23.602L248.023 47.2039M225.305 47.2039H248.023M225.305 47.2039V70.8059M270.741 0V23.602M270.741 0H293.461M270.741 23.602H293.461M270.741 23.602V47.2039M248.023 47.2039H270.741M248.023 47.2039V70.8059M293.461 0V23.602M293.461 0H316.179M293.461 23.602H316.179M293.461 23.602V47.2039M270.741 47.2039H293.461M270.741 47.2039V70.8059M316.179 0V23.602M316.179 0H338.898M316.179 23.602H338.898M316.179 23.602V47.2039M293.461 47.2039H316.179M293.461 47.2039V70.8059M338.898 0V23.602M338.898 0H361.616M338.898 23.602H361.616M338.898 23.602V47.2039M316.179 47.2039H338.898M316.179 47.2039V70.8059M361.616 0V23.602M361.616 0H384.335M361.616 23.602H384.335M361.616 23.602V47.2039M338.898 47.2039H361.616M338.898 47.2039V70.8059M384.335 0V23.602M384.335 0H407.053M384.335 23.602H407.053M384.335 23.602V47.2039M361.616 47.2039H384.335M361.616 47.2039V70.8059M407.053 0V23.602M407.053 0H429.771M407.053 23.602H429.771M407.053 23.602V47.2039M384.335 47.2039H407.053M384.335 47.2039V70.8059M429.771 0V23.602M429.771 0H452.49M429.771 23.602H452.49M429.771 23.602V47.2039M407.053 47.2039H429.771M407.053 47.2039V70.8059M452.49 0V23.602M452.49 0H475.208M452.49 23.602H475.208M452.49 23.602V47.2039M429.771 47.2039H452.49M429.771 47.2039V70.8059M475.208 0V23.602M475.208 0H497.927M475.208 23.602H497.927M475.208 23.602V47.2039M452.49 47.2039H475.208M452.49 47.2039V70.8059M497.927 0V23.602M497.927 0H520.645V23.602M497.927 23.602H520.645M497.927 23.602V47.2039M475.208 47.2039H497.927M475.208 47.2039V70.8059M520.645 23.602V47.2039M497.927 47.2039H520.645M497.927 47.2039V70.8059M520.645 47.2039V70.8059M134.431 70.8059H157.15H179.868M134.431 70.8059V94.4078M179.868 70.8059H202.586M179.868 70.8059V94.4078M202.586 70.8059H225.305M202.586 70.8059V94.4078M225.305 70.8059H248.023M225.305 70.8059V94.4078M248.023 70.8059H270.741M248.023 70.8059V94.4078M270.741 70.8059H293.461M270.741 70.8059V94.4078M293.461 70.8059H316.179M293.461 70.8059V94.4078M316.179 70.8059H338.898M316.179 70.8059V94.4078M338.898 70.8059H361.616M338.898 70.8059V94.4078M361.616 70.8059H384.335M361.616 70.8059V94.4078M384.335 70.8059H407.053M384.335 70.8059V94.4078M407.053 70.8059H429.771M407.053 70.8059V94.4078M429.771 70.8059H452.49M429.771 70.8059V94.4078M452.49 70.8059H475.208M452.49 70.8059V94.4078M475.208 70.8059H497.927M475.208 70.8059V94.4078M497.927 70.8059H520.645M497.927 70.8059V94.4078M520.645 70.8059V94.4078M134.431 94.4078H157.15H179.868M134.431 94.4078V118.01M179.868 94.4078H202.586M179.868 94.4078V118.01M202.586 94.4078H225.305M202.586 94.4078V118.01M225.305 94.4078H248.023M225.305 94.4078V118.01M248.023 94.4078H270.741M248.023 94.4078V118.01M270.741 94.4078H293.461M270.741 94.4078V118.01M293.461 94.4078H316.179M293.461 94.4078V118.01M316.179 94.4078H338.898M316.179 94.4078V118.01M338.898 94.4078H361.616M338.898 94.4078V118.01M361.616 94.4078H384.335M361.616 94.4078V118.01M384.335 94.4078H407.053M384.335 94.4078V118.01M407.053 94.4078H429.771M407.053 94.4078V118.01M429.771 94.4078H452.49M429.771 94.4078V118.01M452.49 94.4078H475.208M452.49 94.4078V118.01M475.208 94.4078H497.927M475.208 94.4078V118.01M497.927 94.4078H520.645M497.927 94.4078V118.01M520.645 94.4078V118.01M134.431 118.01H157.15H179.868M134.431 118.01V141.612M179.868 118.01H202.586M179.868 118.01V141.612M202.586 118.01H225.305M202.586 118.01V141.612M225.305 118.01H248.023M225.305 118.01V141.612M248.023 118.01H270.741M248.023 118.01V141.612M270.741 118.01H293.461M270.741 118.01V141.612M293.461 118.01H316.179M293.461 118.01V141.612M316.179 118.01H338.898M316.179 118.01V141.612M338.898 118.01H361.616M338.898 118.01V141.612M361.616 118.01H384.335M361.616 118.01V141.612M384.335 118.01H407.053M384.335 118.01V141.612M407.053 118.01H429.771M407.053 118.01V141.612M429.771 118.01H452.49M429.771 118.01V141.612M452.49 118.01H475.208M452.49 118.01V141.612M475.208 118.01H497.927M475.208 118.01V141.612M497.927 118.01H520.645M497.927 118.01V141.612M520.645 118.01V141.612M134.431 141.612H157.15H179.868M134.431 141.612V165.214M179.868 141.612H202.586M179.868 141.612V165.214M202.586 141.612H225.305M202.586 141.612V165.214M225.305 141.612H248.023M225.305 141.612V165.214M248.023 141.612H270.741M248.023 141.612V165.214M270.741 141.612H293.461M270.741 141.612V165.214M293.461 141.612H316.179M293.461 141.612V165.214M316.179 141.612H338.898M316.179 141.612V165.214M338.898 141.612H361.616M338.898 141.612V165.214M361.616 141.612H384.335M361.616 141.612V165.214M384.335 141.612H407.053M384.335 141.612V165.214M407.053 141.612H429.771M407.053 141.612V165.214M429.771 141.612H452.49M429.771 141.612V165.214M452.49 141.612H475.208M452.49 141.612V165.214M475.208 141.612H497.927M475.208 141.612V165.214M497.927 141.612H520.645M497.927 141.612V165.214M520.645 141.612V165.214M134.431 165.214H157.15H179.868M134.431 165.214V188.816M179.868 165.214H202.586M179.868 165.214V188.816M202.586 165.214H225.305M202.586 165.214V188.816M225.305 165.214H248.023M225.305 165.214V188.816M248.023 165.214H270.741M248.023 165.214V188.816M270.741 165.214H293.461M270.741 165.214V188.816M293.461 165.214H316.179M293.461 165.214V188.816M316.179 165.214H338.898M316.179 165.214V188.816M338.898 165.214H361.616M338.898 165.214V188.816M361.616 165.214H384.335M361.616 165.214V188.816M384.335 165.214H407.053M384.335 165.214V188.816M407.053 165.214H429.771M407.053 165.214V188.816M429.771 165.214H452.49M429.771 165.214V188.816M452.49 165.214H475.208M452.49 165.214V188.816M475.208 165.214H497.927M475.208 165.214V188.816M497.927 165.214H520.645M497.927 165.214V188.816M520.645 165.214V188.816M134.431 188.816H157.15H179.868M134.431 188.816V212.418M179.868 188.816H202.586M179.868 188.816V212.418M202.586 188.816H225.305M202.586 188.816V212.418M225.305 188.816H248.023M225.305 188.816V212.418M248.023 188.816H270.741M248.023 188.816V212.418M270.741 188.816H293.461M270.741 188.816V212.418M293.461 188.816H316.179M293.461 188.816V212.418M316.179 188.816H338.898M316.179 188.816V212.418M338.898 188.816H361.616M338.898 188.816V212.418M361.616 188.816H384.335M361.616 188.816V212.418M384.335 188.816H407.053M384.335 188.816V212.418M407.053 188.816H429.771M407.053 188.816V212.418M429.771 188.816H452.49M429.771 188.816V212.418M452.49 188.816H475.208M452.49 188.816V212.418M475.208 188.816H497.927M475.208 188.816V212.418M497.927 188.816H520.645M497.927 188.816V212.418M520.645 188.816V212.418M134.431 212.418H157.15H179.868M134.431 212.418V236.02M179.868 212.418H202.586M179.868 212.418V236.02M202.586 212.418H225.305M202.586 212.418V236.02M225.305 212.418H248.023M225.305 212.418V236.02M248.023 212.418H270.741M248.023 212.418V236.02M270.741 212.418H293.461M270.741 212.418V236.02M293.461 212.418H316.179M293.461 212.418V236.02M316.179 212.418H338.898M316.179 212.418V236.02M338.898 212.418H361.616M338.898 212.418V236.02M361.616 212.418H384.335M361.616 212.418V236.02M384.335 212.418H407.053M384.335 212.418V236.02M407.053 212.418H429.771M407.053 212.418V236.02M429.771 212.418H452.49M429.771 212.418V236.02M452.49 212.418H475.208M452.49 212.418V236.02M475.208 212.418H497.927M475.208 212.418V236.02M497.927 212.418H520.645M497.927 212.418V236.02M520.645 212.418V236.02M134.431 236.02H157.15H179.868M134.431 236.02V259.622M179.868 236.02H202.586M179.868 236.02V259.622M202.586 236.02H225.305M202.586 236.02V259.622M225.305 236.02H248.023M225.305 236.02V259.622M248.023 236.02H270.741M248.023 236.02V259.622M270.741 236.02H293.461M270.741 236.02V259.622M293.461 236.02H316.179M293.461 236.02V259.622M316.179 236.02H338.898M316.179 236.02V259.622M338.898 236.02H361.616M338.898 236.02V259.622M361.616 236.02H384.335M361.616 236.02V259.622M384.335 236.02H407.053M384.335 236.02V259.622M407.053 236.02H429.771M407.053 236.02V259.622M429.771 236.02H452.49M429.771 236.02V259.622M452.49 236.02H475.208M452.49 236.02V259.622M475.208 236.02H497.927M475.208 236.02V259.622M497.927 236.02H520.645M497.927 236.02V259.622M520.645 236.02V259.622M134.431 259.622H157.15H179.868M134.431 259.622V283.224H157.15M179.868 259.622H202.586M179.868 259.622V283.224M202.586 259.622H225.305M202.586 259.622V283.224M225.305 259.622H248.023M225.305 259.622V283.224M248.023 259.622H270.741M248.023 259.622V283.224M270.741 259.622H293.461M270.741 259.622V283.224M293.461 259.622H316.179M293.461 259.622V283.224M316.179 259.622H338.898M316.179 259.622V283.224M338.898 259.622H361.616M338.898 259.622V283.224M361.616 259.622H384.335M361.616 259.622V283.224M384.335 259.622H407.053M384.335 259.622V283.224M407.053 259.622H429.771M407.053 259.622V283.224M429.771 259.622H452.49M429.771 259.622V283.224M452.49 259.622H475.208M452.49 259.622V283.224M475.208 259.622H497.927M475.208 259.622V283.224M497.927 259.622H520.645M497.927 259.622V283.224M520.645 259.622V283.224H497.927M179.868 283.224H202.586M202.586 283.224H225.305M225.305 283.224H248.023M248.023 283.224H270.741M270.741 283.224H293.461M293.461 283.224H316.179M316.179 283.224H338.898M338.898 283.224H361.616M361.616 283.224H384.335M384.335 283.224H407.053M407.053 283.224H429.771M429.771 283.224H452.49M452.49 283.224H475.208M475.208 283.224H497.927" stroke="url(#paint0_radial_1600_10522)" stroke-opacity="0.1" stroke-width="1.10526"/>
</g>
</g>
</g>
</g>
<path d="M83.7034 62.0503C83.6685 61.9594 83.624 61.8724 83.5705 61.7911C80.8452 56.6789 76.799 52.391 71.8535 49.374C66.9079 46.3569 61.2439 44.721 55.4513 44.6367C55.4338 44.6367 55.4168 44.6334 55.3993 44.6329C55.1392 44.6198 54.8785 44.6198 54.6184 44.6329C54.5981 44.6329 54.5784 44.6367 54.5582 44.6373C48.7645 44.7202 43.099 46.3554 38.1521 49.3725C33.2051 52.3895 29.1579 56.678 26.4319 61.7911C26.3784 61.8724 26.3338 61.9594 26.299 62.0503C22.889 68.5746 21.8108 76.0683 23.2431 83.2893C23.3252 83.6333 23.5375 83.9321 23.8353 84.1229C24.1332 84.3136 24.4933 84.3816 24.8402 84.3124C25.187 84.2433 25.4936 84.0424 25.6955 83.752C25.8973 83.4616 25.9788 83.1042 25.9228 82.755C24.7022 76.5976 25.4728 70.2115 28.1228 64.5211C31.3766 66.3229 34.8825 67.6256 38.5233 68.3859C38.2174 70.5122 38.0274 72.6537 37.954 74.8007C37.9418 75.1633 38.0742 75.5159 38.322 75.7809C38.5697 76.0459 38.9126 76.2016 39.2752 76.2138C39.6378 76.226 39.9904 76.0936 40.2554 75.8459C40.5205 75.5981 40.6762 75.2552 40.6884 74.8926C40.7561 72.8978 40.9293 70.9081 41.2074 68.9316C45.3102 69.6661 49.4663 70.0632 53.634 70.1189V83.8744C51.7309 83.9073 49.8551 84.0002 48.034 84.1588C47.5807 82.3752 46.4621 80.8326 44.9078 79.8472C43.3534 78.8619 41.481 78.5086 39.6745 78.8597C37.8679 79.2108 36.2641 80.2397 35.192 81.7355C34.1198 83.2313 33.6605 85.0805 33.9082 86.9041C31.3781 87.7019 28.9763 88.8605 26.777 90.344C26.6305 90.4481 26.5059 90.5801 26.4104 90.7324C26.3149 90.8846 26.2503 91.0542 26.2204 91.2314C26.1904 91.4087 26.1956 91.5901 26.2358 91.7653C26.2759 91.9405 26.3502 92.1061 26.4543 92.2526C26.5584 92.3991 26.6904 92.5236 26.8427 92.6191C26.995 92.7146 27.1646 92.7792 27.3418 92.8092C27.519 92.8391 27.7004 92.8339 27.8756 92.7938C28.0508 92.7536 28.2164 92.6794 28.3629 92.5752C30.342 91.2397 32.5047 90.1989 34.7832 89.4854C35.5272 90.7984 36.6647 91.8447 38.0352 92.4765C39.4057 93.1083 40.9401 93.2938 42.4217 93.0068C43.9033 92.7198 45.2574 91.9748 46.2928 90.8769C47.3282 89.7789 47.9928 88.3836 48.1926 86.8877C50.391 86.6963 52.6715 86.5979 55.0012 86.5979C57.3309 86.5979 59.6113 86.6963 61.8098 86.8877C62.0096 88.3836 62.6741 89.7789 63.7096 90.8769C64.745 91.9748 66.0991 92.7198 67.5807 93.0068C69.0623 93.2938 70.5966 93.1083 71.9671 92.4765C73.3377 91.8447 74.4752 90.7984 75.2192 89.4854C77.4976 90.1989 79.6603 91.2397 81.6395 92.5752C81.8715 92.7388 82.1485 92.8267 82.4324 92.8268C82.7228 92.8274 83.0058 92.7355 83.2404 92.5645C83.475 92.3934 83.6491 92.1521 83.7375 91.8756C83.8258 91.599 83.8238 91.3015 83.7317 91.0261C83.6397 90.7507 83.4623 90.5118 83.2254 90.344C81.0261 88.8605 78.6242 87.7019 76.0942 86.9041C76.3445 85.0793 75.8867 83.2279 74.8146 81.7302C73.7426 80.2325 72.1377 79.2021 70.3297 78.8507C68.5216 78.4993 66.6476 78.8536 65.0926 79.8408C63.5376 80.8279 62.4197 82.3731 61.9684 84.1588C60.1473 84.0002 58.2715 83.9073 56.3684 83.8744V70.1189C60.5359 70.0632 64.6918 69.6661 68.7945 68.9316C69.0725 70.9081 69.2458 72.8978 69.3134 74.8926C69.3254 75.2472 69.4747 75.5832 69.7298 75.8298C69.9849 76.0763 70.3259 76.214 70.6806 76.2138H70.7277C71.09 76.2016 71.4327 76.0458 71.6803 75.7809C71.9279 75.516 72.0601 75.1636 72.0478 74.8012C71.9745 72.6542 71.7844 70.5128 71.4785 68.3864C75.1193 67.6262 78.6253 66.3234 81.879 64.5216C84.5291 70.212 85.2996 76.5981 84.0791 82.7555C84.0083 83.1111 84.0816 83.4802 84.2829 83.7817C84.4842 84.0833 84.797 84.2925 85.1526 84.3633C85.2411 84.3814 85.3313 84.3904 85.4216 84.3901C85.7377 84.3898 86.0438 84.28 86.2879 84.0794C86.5321 83.8788 86.6993 83.5998 86.7609 83.2898C88.193 76.0692 87.1148 68.5759 83.705 62.0519L83.7034 62.0503ZM68.952 81.4518C70.138 81.4532 71.2749 81.925 72.1136 82.7636C72.9522 83.6022 73.424 84.7392 73.4254 85.9252C73.4254 85.9854 73.4254 86.0401 73.4199 86.1002C73.3874 87.0326 73.06 87.9306 72.4848 88.6651C71.9812 89.3184 71.3065 89.8194 70.5355 90.1127C69.7645 90.4059 68.9274 90.4799 68.1169 90.3264C67.3065 90.1729 66.5544 89.798 65.944 89.2431C65.3336 88.6883 64.8889 87.9752 64.659 87.183C64.5402 86.7743 64.4794 86.3509 64.4785 85.9252C64.4775 85.4205 64.5626 84.9193 64.7301 84.4432C65.0386 83.5695 65.6101 82.8128 66.3661 82.2772C67.1221 81.7415 68.0254 81.4532 68.952 81.4518ZM46.7127 48.5474C43.181 52.1798 40.4177 58.1516 38.9706 65.6936C35.613 64.9933 32.3826 63.7823 29.3921 62.1028C33.2232 55.5387 39.4203 50.6888 46.7127 48.5474ZM41.6498 66.2487C43.6262 56.0035 48.3692 48.6098 53.634 47.5023V67.3851C49.615 67.3324 45.607 66.9523 41.6498 66.2487ZM41.0482 90.4041C40.3655 90.4042 39.6919 90.2475 39.0793 89.9459C38.4668 89.6444 37.9317 89.2062 37.5154 88.6651C36.9402 87.9306 36.6128 87.0326 36.5802 86.1002C36.5748 86.0401 36.5748 85.9854 36.5748 85.9252C36.5748 84.7388 37.0461 83.601 37.885 82.762C38.724 81.9231 39.8618 81.4518 41.0482 81.4518C42.2346 81.4518 43.3725 81.9231 44.2114 82.762C45.0503 83.601 45.5217 84.7388 45.5217 85.9252C45.5208 86.3509 45.46 86.7743 45.3412 87.183C45.0688 88.1108 44.5039 88.9256 43.7307 89.5061C42.9574 90.0865 42.0173 90.4016 41.0504 90.4041H41.0482ZM56.3684 47.5001C61.626 48.5977 66.3762 55.9948 68.3526 66.2492C64.3953 66.9524 60.3873 67.3323 56.3684 67.3851V47.5001ZM71.0317 65.6936C69.5847 58.1522 66.8208 52.1809 63.294 48.5485C70.5846 50.6907 76.7799 55.54 80.6102 62.1028C77.6197 63.7823 74.3894 64.9933 71.0317 65.6936Z" fill="#A7ADBE"/>
<path d="M83.7344 104.913C80.1251 95.244 79.5837 94.8557 69.2805 94.8557H68.6298C59.1688 94.8557 57.9329 95.1838 55.0016 102.731C52.0704 95.1838 50.8399 94.8557 41.379 94.8557H40.7282C30.4251 94.8557 29.8782 95.244 26.2688 104.918L26.1649 105.186C25.7876 106.203 25.4376 107.368 26.1102 108.331C26.7829 109.293 27.986 109.375 29.0688 109.375H53.0274C53.6967 109.407 54.3661 109.314 55.0016 109.102C55.6352 109.314 56.3028 109.407 56.9704 109.375H80.929C82.0118 109.375 83.2258 109.293 83.893 108.331C84.1507 107.958 84.2846 107.515 84.2758 107.062C84.2411 106.416 84.093 105.781 83.8383 105.186L83.7344 104.913ZM53.0274 106.641H29.0688C28.861 106.641 28.6915 106.635 28.5602 106.624C28.5985 106.499 28.6532 106.34 28.7298 106.143L28.8282 105.87C30.4415 101.56 31.2454 99.3948 32.5469 98.4924C33.8485 97.5901 36.1563 97.5901 40.761 97.5901H41.3462C45.9508 97.5901 48.2532 97.5901 49.5548 98.4924C50.8563 99.3948 51.6602 101.555 53.2735 105.87L53.3719 106.138C53.4485 106.34 53.5032 106.499 53.5415 106.624C53.4102 106.635 53.2407 106.641 53.0274 106.641ZM80.929 106.641H56.9704C56.7626 106.641 56.593 106.635 56.4673 106.624C56.513 106.461 56.5678 106.3 56.6313 106.143L56.7298 105.875C58.343 101.56 59.1469 99.3948 60.4485 98.4924C61.7501 97.5901 64.0469 97.5901 68.6626 97.5901H69.2477C73.8524 97.5846 76.1548 97.5901 77.4563 98.4924C78.7579 99.3948 79.5618 101.555 81.1751 105.87L81.2735 106.138C81.3501 106.34 81.4048 106.499 81.443 106.624C81.3118 106.635 81.1423 106.641 80.929 106.641Z" fill="#A7ADBE"/>
<path d="M29.672 151.312C27.9387 151.312 26.4307 150.922 25.148 150.142C23.8827 149.345 22.8947 148.244 22.184 146.84C21.4733 145.436 21.118 143.815 21.118 141.978C21.118 140.193 21.4647 138.581 22.158 137.142C22.8513 135.703 23.8653 134.568 25.2 133.736C26.552 132.904 28.1987 132.488 30.14 132.488C32.2373 132.488 33.9793 132.999 35.366 134.022C36.7527 135.027 37.654 136.414 38.07 138.182H34.742C34.482 137.263 33.9533 136.535 33.156 135.998C32.376 135.461 31.3707 135.192 30.14 135.192C28.84 135.192 27.7393 135.478 26.838 136.05C25.954 136.622 25.278 137.419 24.81 138.442C24.3593 139.447 24.134 140.635 24.134 142.004C24.134 143.356 24.3593 144.535 24.81 145.54C25.278 146.545 25.9453 147.325 26.812 147.88C27.6787 148.417 28.71 148.686 29.906 148.686C31.5873 148.686 32.87 148.235 33.754 147.334C34.638 146.415 35.1753 145.185 35.366 143.642H29.334V141.198H38.408V151H35.704L35.47 148.4C34.846 149.336 34.0833 150.055 33.182 150.558C32.2807 151.061 31.1107 151.312 29.672 151.312ZM40.6627 151V132.8H43.6007V151H40.6627ZM51.9674 151.312C50.7021 151.312 49.5667 151.035 48.5614 150.48C47.5561 149.925 46.7587 149.145 46.1694 148.14C45.5974 147.117 45.3114 145.921 45.3114 144.552C45.3114 143.148 45.6147 141.943 46.2214 140.938C46.8281 139.933 47.6427 139.161 48.6654 138.624C49.6881 138.069 50.8234 137.792 52.0714 137.792C53.3367 137.792 54.4721 138.069 55.4774 138.624C56.5001 139.161 57.3061 139.933 57.8954 140.938C58.5021 141.943 58.8054 143.148 58.8054 144.552C58.8054 145.852 58.5107 147.013 57.9214 148.036C57.3494 149.059 56.5434 149.865 55.5034 150.454C54.4807 151.026 53.3021 151.312 51.9674 151.312ZM51.9934 148.764C52.7387 148.764 53.3887 148.582 53.9434 148.218C54.5154 147.837 54.9661 147.325 55.2954 146.684C55.6247 146.043 55.7894 145.315 55.7894 144.5C55.7894 143.651 55.6247 142.914 55.2954 142.29C54.9661 141.666 54.5154 141.189 53.9434 140.86C53.3887 140.513 52.7474 140.34 52.0194 140.34C51.2567 140.34 50.5894 140.522 50.0174 140.886C49.4627 141.25 49.0381 141.753 48.7434 142.394C48.4487 143.018 48.3014 143.737 48.3014 144.552C48.3014 145.436 48.4661 146.199 48.7954 146.84C49.1421 147.464 49.5927 147.941 50.1474 148.27C50.7194 148.599 51.3347 148.764 51.9934 148.764ZM67.954 151.312C67.0353 151.312 66.186 151.13 65.406 150.766C64.626 150.385 63.9933 149.83 63.508 149.102L63.456 151H60.57V132.8H63.508V140.028C63.9586 139.352 64.5653 138.815 65.328 138.416C66.108 138 66.992 137.792 67.98 137.792C69.228 137.792 70.3026 138.095 71.204 138.702C72.1226 139.291 72.8333 140.097 73.336 141.12C73.8386 142.125 74.09 143.261 74.09 144.526C74.09 145.774 73.8386 146.918 73.336 147.958C72.8333 148.981 72.1226 149.795 71.204 150.402C70.3026 151.009 69.2193 151.312 67.954 151.312ZM67.304 148.738C68.0493 148.738 68.708 148.556 69.28 148.192C69.852 147.828 70.294 147.325 70.606 146.684C70.9353 146.025 71.1 145.306 71.1 144.526C71.1 143.677 70.9266 142.94 70.58 142.316C70.2506 141.692 69.8 141.215 69.228 140.886C68.656 140.539 68.0146 140.366 67.304 140.366C66.5586 140.366 65.9 140.548 65.328 140.912C64.7733 141.259 64.3313 141.753 64.002 142.394C63.69 143.018 63.534 143.737 63.534 144.552C63.534 145.367 63.69 146.095 64.002 146.736C64.3313 147.36 64.782 147.854 65.354 148.218C65.926 148.565 66.576 148.738 67.304 148.738ZM79.9243 151.312C79.127 151.312 78.3816 151.165 77.6883 150.87C77.0123 150.558 76.4663 150.107 76.0503 149.518C75.6516 148.929 75.4523 148.227 75.4523 147.412C75.4523 146.441 75.695 145.653 76.1803 145.046C76.6656 144.439 77.3243 143.997 78.1563 143.72C78.9883 143.425 79.907 143.278 80.9123 143.278H84.1363C84.1363 142.585 84.0236 142.021 83.7983 141.588C83.573 141.137 83.261 140.808 82.8623 140.6C82.4636 140.375 81.9956 140.262 81.4583 140.262C80.765 140.262 80.1583 140.418 79.6383 140.73C79.1183 141.042 78.7976 141.553 78.6763 142.264H75.7123C75.799 141.328 76.111 140.531 76.6483 139.872C77.203 139.196 77.905 138.685 78.7543 138.338C79.6036 137.974 80.5136 137.792 81.4843 137.792C82.7323 137.792 83.7636 138.026 84.5783 138.494C85.4103 138.945 86.0343 139.577 86.4503 140.392C86.8836 141.207 87.1003 142.151 87.1003 143.226V147.152C87.1176 147.62 87.2303 147.958 87.4383 148.166C87.6636 148.374 88.0103 148.487 88.4783 148.504V151C87.7503 151 87.1263 150.922 86.6063 150.766C86.0863 150.61 85.653 150.376 85.3063 150.064C84.977 149.752 84.7083 149.345 84.5003 148.842C84.0843 149.535 83.469 150.125 82.6543 150.61C81.857 151.078 80.947 151.312 79.9243 151.312ZM80.6783 148.92C81.3543 148.92 81.9436 148.764 82.4463 148.452C82.9663 148.123 83.3736 147.689 83.6683 147.152C83.9803 146.597 84.1363 145.991 84.1363 145.332V145.254H81.1203C80.6696 145.254 80.2363 145.315 79.8203 145.436C79.4043 145.557 79.075 145.757 78.8323 146.034C78.5896 146.294 78.4683 146.658 78.4683 147.126C78.4683 147.75 78.685 148.209 79.1183 148.504C79.5516 148.781 80.0716 148.92 80.6783 148.92ZM89.8971 151V132.8H92.8351V151H89.8971ZM100.867 151V132.8H103.805V151H100.867ZM112.016 151.312C110.716 151.312 109.58 151.026 108.61 150.454C107.639 149.865 106.876 149.067 106.322 148.062C105.784 147.039 105.516 145.869 105.516 144.552C105.516 143.183 105.784 141.995 106.322 140.99C106.876 139.985 107.639 139.205 108.61 138.65C109.598 138.078 110.742 137.792 112.042 137.792C113.307 137.792 114.408 138.069 115.344 138.624C116.28 139.161 117.016 139.907 117.554 140.86C118.091 141.813 118.36 142.897 118.36 144.11C118.36 144.353 118.351 144.569 118.334 144.76C118.334 144.951 118.316 145.159 118.282 145.384H108.48C108.532 146.06 108.705 146.667 109 147.204C109.294 147.724 109.693 148.131 110.196 148.426C110.716 148.721 111.305 148.868 111.964 148.868C112.674 148.868 113.272 148.712 113.758 148.4C114.26 148.088 114.65 147.637 114.928 147.048H118.022C117.779 147.828 117.389 148.539 116.852 149.18C116.332 149.821 115.664 150.341 114.85 150.74C114.052 151.121 113.108 151.312 112.016 151.312ZM108.506 143.33H115.344C115.326 142.377 114.988 141.623 114.33 141.068C113.671 140.513 112.882 140.236 111.964 140.236C111.132 140.236 110.378 140.487 109.702 140.99C109.043 141.493 108.644 142.273 108.506 143.33ZM124.018 151.312C123.22 151.312 122.475 151.165 121.782 150.87C121.106 150.558 120.56 150.107 120.144 149.518C119.745 148.929 119.546 148.227 119.546 147.412C119.546 146.441 119.788 145.653 120.274 145.046C120.759 144.439 121.418 143.997 122.25 143.72C123.082 143.425 124 143.278 125.006 143.278H128.23C128.23 142.585 128.117 142.021 127.892 141.588C127.666 141.137 127.354 140.808 126.956 140.6C126.557 140.375 126.089 140.262 125.552 140.262C124.858 140.262 124.252 140.418 123.732 140.73C123.212 141.042 122.891 141.553 122.77 142.264H119.806C119.892 141.328 120.204 140.531 120.742 139.872C121.296 139.196 121.998 138.685 122.848 138.338C123.697 137.974 124.607 137.792 125.578 137.792C126.826 137.792 127.857 138.026 128.672 138.494C129.504 138.945 130.128 139.577 130.544 140.392C130.977 141.207 131.194 142.151 131.194 143.226V147.152C131.211 147.62 131.324 147.958 131.532 148.166C131.757 148.374 132.104 148.487 132.572 148.504V151C131.844 151 131.22 150.922 130.7 150.766C130.18 150.61 129.746 150.376 129.4 150.064C129.07 149.752 128.802 149.345 128.594 148.842C128.178 149.535 127.562 150.125 126.748 150.61C125.95 151.078 125.04 151.312 124.018 151.312ZM124.772 148.92C125.448 148.92 126.037 148.764 126.54 148.452C127.06 148.123 127.467 147.689 127.762 147.152C128.074 146.597 128.23 145.991 128.23 145.332V145.254H125.214C124.763 145.254 124.33 145.315 123.914 145.436C123.498 145.557 123.168 145.757 122.926 146.034C122.683 146.294 122.562 146.658 122.562 147.126C122.562 147.75 122.778 148.209 123.212 148.504C123.645 148.781 124.165 148.92 124.772 148.92ZM133.991 151V138.104H136.851L136.903 140.21C137.336 139.447 137.917 138.858 138.645 138.442C139.39 138.009 140.248 137.792 141.219 137.792V140.886H140.413C139.234 140.886 138.359 141.181 137.787 141.77C137.215 142.359 136.929 143.278 136.929 144.526V151H133.991ZM142.535 151V138.104H145.395L145.447 139.872C145.88 139.196 146.478 138.685 147.241 138.338C148.004 137.974 148.801 137.792 149.633 137.792C151.141 137.792 152.363 138.269 153.299 139.222C154.235 140.175 154.703 141.579 154.703 143.434V151H151.791V143.798C151.791 142.706 151.531 141.848 151.011 141.224C150.491 140.6 149.728 140.288 148.723 140.288C147.718 140.288 146.92 140.626 146.331 141.302C145.759 141.961 145.473 142.862 145.473 144.006V151H142.535ZM162.774 151.312C161.474 151.312 160.338 151.026 159.368 150.454C158.397 149.865 157.634 149.067 157.08 148.062C156.542 147.039 156.274 145.869 156.274 144.552C156.274 143.183 156.542 141.995 157.08 140.99C157.634 139.985 158.397 139.205 159.368 138.65C160.356 138.078 161.5 137.792 162.8 137.792C164.065 137.792 165.166 138.069 166.102 138.624C167.038 139.161 167.774 139.907 168.312 140.86C168.849 141.813 169.118 142.897 169.118 144.11C169.118 144.353 169.109 144.569 169.092 144.76C169.092 144.951 169.074 145.159 169.04 145.384H159.238C159.29 146.06 159.463 146.667 159.758 147.204C160.052 147.724 160.451 148.131 160.954 148.426C161.474 148.721 162.063 148.868 162.722 148.868C163.432 148.868 164.03 148.712 164.516 148.4C165.018 148.088 165.408 147.637 165.686 147.048H168.78C168.537 147.828 168.147 148.539 167.61 149.18C167.09 149.821 166.422 150.341 165.608 150.74C164.81 151.121 163.866 151.312 162.774 151.312ZM159.264 143.33H166.102C166.084 142.377 165.746 141.623 165.088 141.068C164.429 140.513 163.64 140.236 162.722 140.236C161.89 140.236 161.136 140.487 160.46 140.99C159.801 141.493 159.402 142.273 159.264 143.33ZM170.72 151V138.104H173.58L173.632 140.21C174.065 139.447 174.646 138.858 175.374 138.442C176.119 138.009 176.977 137.792 177.948 137.792V140.886H177.142C175.963 140.886 175.088 141.181 174.516 141.77C173.944 142.359 173.658 143.278 173.658 144.526V151H170.72ZM27.384 180.312C26.1187 180.312 25.0007 180.026 24.03 179.454C23.0593 178.882 22.2967 178.093 21.742 177.088C21.1873 176.065 20.91 174.887 20.91 173.552C20.91 172.235 21.1787 171.073 21.716 170.068C22.2533 169.045 23.0073 168.248 23.978 167.676C24.9487 167.087 26.084 166.792 27.384 166.792C28.944 166.792 30.2527 167.191 31.31 167.988C32.3847 168.768 33.0953 169.886 33.442 171.342H30.322C30.166 170.735 29.828 170.241 29.308 169.86C28.788 169.479 28.138 169.288 27.358 169.288C26.578 169.288 25.9367 169.487 25.434 169.886C24.9313 170.267 24.55 170.787 24.29 171.446C24.0473 172.087 23.926 172.789 23.926 173.552C23.926 174.349 24.056 175.069 24.316 175.71C24.576 176.351 24.9573 176.863 25.46 177.244C25.98 177.625 26.6127 177.816 27.358 177.816C28.1207 177.816 28.7533 177.643 29.256 177.296C29.776 176.932 30.1313 176.421 30.322 175.762H33.442C33.234 176.698 32.844 177.513 32.272 178.206C31.7173 178.882 31.024 179.402 30.192 179.766C29.36 180.13 28.424 180.312 27.384 180.312ZM41.4171 180.312C40.1518 180.312 39.0164 180.035 38.0111 179.48C37.0058 178.925 36.2084 178.145 35.6191 177.14C35.0471 176.117 34.7611 174.921 34.7611 173.552C34.7611 172.148 35.0644 170.943 35.6711 169.938C36.2778 168.933 37.0924 168.161 38.1151 167.624C39.1378 167.069 40.2731 166.792 41.5211 166.792C42.7864 166.792 43.9218 167.069 44.9271 167.624C45.9498 168.161 46.7558 168.933 47.3451 169.938C47.9518 170.943 48.2551 172.148 48.2551 173.552C48.2551 174.852 47.9604 176.013 47.3711 177.036C46.7991 178.059 45.9931 178.865 44.9531 179.454C43.9304 180.026 42.7518 180.312 41.4171 180.312ZM41.4431 177.764C42.1884 177.764 42.8384 177.582 43.3931 177.218C43.9651 176.837 44.4158 176.325 44.7451 175.684C45.0744 175.043 45.2391 174.315 45.2391 173.5C45.2391 172.651 45.0744 171.914 44.7451 171.29C44.4158 170.666 43.9651 170.189 43.3931 169.86C42.8384 169.513 42.1971 169.34 41.4691 169.34C40.7064 169.34 40.0391 169.522 39.4671 169.886C38.9124 170.25 38.4878 170.753 38.1931 171.394C37.8984 172.018 37.7511 172.737 37.7511 173.552C37.7511 174.436 37.9158 175.199 38.2451 175.84C38.5918 176.464 39.0424 176.941 39.5971 177.27C40.1691 177.599 40.7844 177.764 41.4431 177.764ZM50.0196 180V167.104H52.8796L52.9316 168.716C53.365 168.075 53.9196 167.598 54.5956 167.286C55.2716 166.957 56.0083 166.792 56.8056 166.792C57.7936 166.792 58.6863 167 59.4836 167.416C60.2983 167.815 60.9223 168.447 61.3556 169.314C61.8063 168.517 62.413 167.901 63.1756 167.468C63.9556 167.017 64.805 166.792 65.7236 166.792C66.729 166.792 67.6216 167 68.4016 167.416C69.199 167.815 69.823 168.43 70.2736 169.262C70.7243 170.094 70.9496 171.143 70.9496 172.408V180H68.0376V172.798C68.0376 171.706 67.7863 170.857 67.2836 170.25C66.7983 169.643 66.0703 169.34 65.0996 169.34C64.1116 169.34 63.3403 169.669 62.7856 170.328C62.231 170.969 61.9536 171.862 61.9536 173.006V180H59.0416V172.798C59.0416 171.689 58.7816 170.839 58.2616 170.25C57.759 169.643 57.031 169.34 56.0776 169.34C55.2283 169.34 54.4916 169.643 53.8676 170.25C53.261 170.839 52.9576 171.758 52.9576 173.006V180H50.0196ZM72.9606 180V167.104H75.8206L75.8726 168.716C76.3059 168.075 76.8606 167.598 77.5366 167.286C78.2126 166.957 78.9492 166.792 79.7466 166.792C80.7346 166.792 81.6272 167 82.4246 167.416C83.2392 167.815 83.8632 168.447 84.2966 169.314C84.7472 168.517 85.3539 167.901 86.1166 167.468C86.8966 167.017 87.7459 166.792 88.6646 166.792C89.6699 166.792 90.5626 167 91.3426 167.416C92.1399 167.815 92.7639 168.43 93.2146 169.262C93.6652 170.094 93.8906 171.143 93.8906 172.408V180H90.9786V172.798C90.9786 171.706 90.7272 170.857 90.2246 170.25C89.7392 169.643 89.0112 169.34 88.0406 169.34C87.0526 169.34 86.2812 169.669 85.7266 170.328C85.1719 170.969 84.8946 171.862 84.8946 173.006V180H81.9826V172.798C81.9826 171.689 81.7226 170.839 81.2026 170.25C80.6999 169.643 79.9719 169.34 79.0186 169.34C78.1692 169.34 77.4326 169.643 76.8086 170.25C76.2019 170.839 75.8986 171.758 75.8986 173.006V180H72.9606ZM100.842 180.312C99.7668 180.312 98.8395 180.087 98.0595 179.636C97.2968 179.185 96.7075 178.544 96.2915 177.712C95.8755 176.863 95.6675 175.866 95.6675 174.722V167.104H98.6055V174.306C98.6055 175.381 98.8568 176.239 99.3595 176.88C99.8795 177.504 100.642 177.816 101.648 177.816C102.67 177.816 103.468 177.487 104.04 176.828C104.612 176.169 104.898 175.259 104.898 174.098V167.104H107.836V180H104.976L104.924 178.232C104.49 178.891 103.91 179.402 103.182 179.766C102.454 180.13 101.674 180.312 100.842 180.312ZM110.083 180V167.104H112.943L112.995 168.872C113.428 168.196 114.026 167.685 114.789 167.338C115.551 166.974 116.349 166.792 117.181 166.792C118.689 166.792 119.911 167.269 120.847 168.222C121.783 169.175 122.251 170.579 122.251 172.434V180H119.339V172.798C119.339 171.706 119.079 170.848 118.559 170.224C118.039 169.6 117.276 169.288 116.271 169.288C115.265 169.288 114.468 169.626 113.879 170.302C113.307 170.961 113.021 171.862 113.021 173.006V180H110.083ZM125.927 165.05C125.39 165.05 124.931 164.859 124.549 164.478C124.168 164.097 123.977 163.637 123.977 163.1C123.977 162.563 124.168 162.112 124.549 161.748C124.931 161.367 125.39 161.176 125.927 161.176C126.465 161.176 126.924 161.367 127.305 161.748C127.687 162.112 127.877 162.563 127.877 163.1C127.877 163.637 127.687 164.097 127.305 164.478C126.924 164.859 126.465 165.05 125.927 165.05ZM124.445 180V167.104H127.409V180H124.445ZM134.857 180C133.539 180 132.534 179.679 131.841 179.038C131.147 178.397 130.801 177.374 130.801 175.97V169.574H128.955V167.104H130.801V163.984H133.765V167.104H136.911V169.574H133.765V175.996C133.765 176.585 133.903 176.993 134.181 177.218C134.458 177.426 134.874 177.53 135.429 177.53H136.911V180H134.857ZM139.986 185.72L142.82 179.428L137.49 167.104H140.766L144.406 176.308L148.176 167.104H151.27L143.08 185.72H139.986Z" fill="white"/>
<path d="M27.62 214.24C26.2067 214.24 25 213.927 24 213.3C23 212.66 22.24 211.793 21.72 210.7C21.2 209.607 20.94 208.373 20.94 207C20.94 205.64 21.1933 204.413 21.7 203.32C22.22 202.227 22.98 201.36 23.98 200.72C24.98 200.08 26.1933 199.76 27.62 199.76C29.22 199.76 30.52 200.147 31.52 200.92C32.5333 201.68 33.18 202.747 33.46 204.12H31.6C31.3867 203.253 30.9467 202.56 30.28 202.04C29.6267 201.507 28.74 201.24 27.62 201.24C26.5133 201.24 25.5933 201.5 24.86 202.02C24.1267 202.527 23.5733 203.213 23.2 204.08C22.84 204.947 22.66 205.92 22.66 207C22.66 208.107 22.8467 209.093 23.22 209.96C23.6067 210.827 24.1667 211.513 24.9 212.02C25.6333 212.513 26.54 212.76 27.62 212.76C28.74 212.76 29.6267 212.507 30.28 212C30.9467 211.48 31.3867 210.793 31.6 209.94H33.46C33.18 211.287 32.5333 212.34 31.52 213.1C30.52 213.86 29.22 214.24 27.62 214.24ZM40.3545 214.24C39.4479 214.24 38.6145 214.04 37.8545 213.64C37.0945 213.227 36.4879 212.633 36.0345 211.86C35.5812 211.073 35.3545 210.127 35.3545 209.02C35.3545 207.967 35.5745 207.053 36.0145 206.28C36.4679 205.507 37.0745 204.907 37.8345 204.48C38.6079 204.053 39.4745 203.84 40.4345 203.84C41.3545 203.84 42.1945 204.04 42.9545 204.44C43.7279 204.84 44.3479 205.427 44.8145 206.2C45.2812 206.973 45.5145 207.913 45.5145 209.02C45.5145 210.033 45.2945 210.933 44.8545 211.72C44.4145 212.507 43.8012 213.127 43.0145 213.58C42.2412 214.02 41.3545 214.24 40.3545 214.24ZM40.3545 212.78C41.0079 212.78 41.5945 212.627 42.1145 212.32C42.6345 212 43.0479 211.56 43.3545 211C43.6612 210.44 43.8145 209.78 43.8145 209.02C43.8145 208.3 43.6812 207.66 43.4145 207.1C43.1479 206.54 42.7612 206.1 42.2545 205.78C41.7479 205.46 41.1345 205.3 40.4145 205.3C39.6812 205.3 39.0612 205.467 38.5545 205.8C38.0612 206.133 37.6879 206.58 37.4345 207.14C37.1812 207.7 37.0545 208.327 37.0545 209.02C37.0545 209.9 37.2145 210.62 37.5345 211.18C37.8545 211.727 38.2679 212.133 38.7745 212.4C39.2812 212.653 39.8079 212.78 40.3545 212.78ZM47.8448 214V204.08H49.3648L49.4648 205.86C49.7848 205.233 50.2448 204.74 50.8448 204.38C51.4448 204.02 52.1248 203.84 52.8848 203.84C54.0582 203.84 54.9915 204.2 55.6848 204.92C56.3915 205.627 56.7448 206.72 56.7448 208.2V214H55.0648V208.38C55.0648 207.353 54.8515 206.58 54.4248 206.06C53.9982 205.54 53.3582 205.28 52.5048 205.28C51.6515 205.28 50.9382 205.593 50.3648 206.22C49.8048 206.833 49.5248 207.713 49.5248 208.86V214H47.8448ZM59.3097 214V204.08H60.8297L60.9297 205.86C61.2497 205.233 61.7097 204.74 62.3097 204.38C62.9097 204.02 63.5897 203.84 64.3497 203.84C65.523 203.84 66.4564 204.2 67.1497 204.92C67.8564 205.627 68.2097 206.72 68.2097 208.2V214H66.5297V208.38C66.5297 207.353 66.3164 206.58 65.8897 206.06C65.463 205.54 64.823 205.28 63.9697 205.28C63.1164 205.28 62.403 205.593 61.8297 206.22C61.2697 206.833 60.9897 207.713 60.9897 208.86V214H59.3097ZM75.2345 214.24C74.3145 214.24 73.4812 214.027 72.7345 213.6C72.0012 213.173 71.4212 212.573 70.9945 211.8C70.5679 211.013 70.3545 210.093 70.3545 209.04C70.3545 208 70.5545 207.093 70.9545 206.32C71.3679 205.533 71.9412 204.927 72.6745 204.5C73.4212 204.06 74.2879 203.84 75.2745 203.84C76.2079 203.84 77.0212 204.047 77.7145 204.46C78.4079 204.873 78.9479 205.433 79.3345 206.14C79.7345 206.833 79.9345 207.613 79.9345 208.48C79.9345 208.667 79.9345 208.813 79.9345 208.92C79.9345 209.027 79.9279 209.193 79.9145 209.42H72.0145C72.0545 210.073 72.2079 210.66 72.4745 211.18C72.7545 211.687 73.1279 212.087 73.5945 212.38C74.0745 212.673 74.6212 212.82 75.2345 212.82C75.9279 212.82 76.5079 212.66 76.9745 212.34C77.4412 212.02 77.7812 211.587 77.9945 211.04H79.6545C79.4812 211.653 79.1945 212.2 78.7945 212.68C78.3945 213.16 77.8945 213.54 77.2945 213.82C76.7079 214.1 76.0212 214.24 75.2345 214.24ZM72.0345 208.12H78.2745C78.2345 207.227 77.9279 206.527 77.3545 206.02C76.7812 205.513 76.0745 205.26 75.2345 205.26C74.4345 205.26 73.7212 205.507 73.0945 206C72.4812 206.48 72.1279 207.187 72.0345 208.12ZM86.7213 214.24C85.7879 214.24 84.9413 214.027 84.1813 213.6C83.4346 213.173 82.8413 212.573 82.4013 211.8C81.9613 211.013 81.7413 210.093 81.7413 209.04C81.7413 208.013 81.9546 207.113 82.3813 206.34C82.8079 205.553 83.3946 204.94 84.1413 204.5C84.8879 204.06 85.7479 203.84 86.7213 203.84C87.8946 203.84 88.8813 204.147 89.6813 204.76C90.4946 205.373 91.0079 206.193 91.2213 207.22H89.5013C89.3679 206.607 89.0413 206.133 88.5213 205.8C88.0013 205.453 87.3946 205.28 86.7013 205.28C85.9946 205.28 85.4013 205.453 84.9213 205.8C84.4413 206.147 84.0746 206.607 83.8213 207.18C83.5813 207.753 83.4613 208.373 83.4613 209.04C83.4613 209.773 83.6013 210.427 83.8813 211C84.1613 211.573 84.5413 212.02 85.0213 212.34C85.5146 212.66 86.0746 212.82 86.7013 212.82C87.3946 212.82 88.0013 212.653 88.5213 212.32C89.0413 211.973 89.3679 211.487 89.5013 210.86H91.2213C91.0879 211.527 90.8146 212.113 90.4013 212.62C89.9879 213.127 89.4679 213.527 88.8413 213.82C88.2146 214.1 87.5079 214.24 86.7213 214.24ZM97.2922 214C96.3855 214 95.6722 213.78 95.1522 213.34C94.6322 212.9 94.3722 212.107 94.3722 210.96V205.5H92.6522V204.08H94.3722V201.7H96.0522V204.08H98.8322V205.5H96.0522V210.96C96.0522 211.587 96.1789 212.013 96.4322 212.24C96.6855 212.453 97.1322 212.56 97.7722 212.56H98.8322V214H97.2922ZM109.7 214.24C109.02 214.24 108.4 214.127 107.84 213.9C107.28 213.673 106.833 213.333 106.5 212.88C106.18 212.413 106.02 211.847 106.02 211.18C106.02 210.407 106.22 209.793 106.62 209.34C107.02 208.873 107.546 208.54 108.2 208.34C108.866 208.127 109.58 208.02 110.34 208.02H113.02C113.02 207.327 112.9 206.78 112.66 206.38C112.433 205.98 112.133 205.693 111.76 205.52C111.386 205.347 110.973 205.26 110.52 205.26C109.866 205.26 109.3 205.42 108.82 205.74C108.353 206.047 108.06 206.527 107.94 207.18H106.22C106.286 206.46 106.526 205.853 106.94 205.36C107.353 204.867 107.873 204.493 108.5 204.24C109.14 203.973 109.813 203.84 110.52 203.84C111.52 203.84 112.326 204.027 112.94 204.4C113.553 204.76 114 205.247 114.28 205.86C114.56 206.473 114.7 207.153 114.7 207.9V210.94C114.7 211.433 114.76 211.807 114.88 212.06C115 212.313 115.306 212.467 115.8 212.52V214C115.36 214 114.96 213.947 114.6 213.84C114.24 213.72 113.933 213.533 113.68 213.28C113.44 213.013 113.266 212.667 113.16 212.24C112.826 212.8 112.366 213.273 111.78 213.66C111.206 214.047 110.513 214.24 109.7 214.24ZM109.96 212.82C110.626 212.82 111.186 212.653 111.64 212.32C112.093 211.973 112.433 211.533 112.66 211C112.9 210.467 113.02 209.913 113.02 209.34V209.32H110.48C110.013 209.32 109.573 209.373 109.16 209.48C108.746 209.573 108.413 209.753 108.16 210.02C107.906 210.273 107.78 210.633 107.78 211.1C107.78 211.7 107.993 212.14 108.42 212.42C108.846 212.687 109.36 212.82 109.96 212.82ZM117.825 214V204.08H119.345L119.445 205.86C119.765 205.233 120.225 204.74 120.825 204.38C121.425 204.02 122.105 203.84 122.865 203.84C124.039 203.84 124.972 204.2 125.665 204.92C126.372 205.627 126.725 206.72 126.725 208.2V214H125.045V208.38C125.045 207.353 124.832 206.58 124.405 206.06C123.979 205.54 123.339 205.28 122.485 205.28C121.632 205.28 120.919 205.593 120.345 206.22C119.785 206.833 119.505 207.713 119.505 208.86V214H117.825ZM133.79 214.24C132.777 214.24 131.903 214.007 131.17 213.54C130.437 213.073 129.87 212.447 129.47 211.66C129.07 210.873 128.87 209.993 128.87 209.02C128.87 208.06 129.063 207.187 129.45 206.4C129.85 205.613 130.417 204.993 131.15 204.54C131.883 204.073 132.77 203.84 133.81 203.84C134.623 203.84 135.343 204.007 135.97 204.34C136.597 204.673 137.083 205.14 137.43 205.74V200H139.11V214H137.59L137.43 212.36C137.11 212.84 136.65 213.273 136.05 213.66C135.45 214.047 134.697 214.24 133.79 214.24ZM133.97 212.78C134.703 212.78 135.323 212.613 135.83 212.28C136.337 211.933 136.717 211.48 136.97 210.92C137.237 210.347 137.37 209.72 137.37 209.04C137.37 208.32 137.237 207.68 136.97 207.12C136.703 206.56 136.317 206.12 135.81 205.8C135.303 205.467 134.69 205.3 133.97 205.3C133.33 205.3 132.757 205.453 132.25 205.76C131.743 206.067 131.337 206.5 131.03 207.06C130.737 207.607 130.59 208.267 130.59 209.04C130.59 209.813 130.743 210.48 131.05 211.04C131.357 211.6 131.763 212.033 132.27 212.34C132.79 212.633 133.357 212.78 133.97 212.78ZM151.082 218.64C150.295 218.64 149.542 218.54 148.822 218.34C148.102 218.14 147.515 217.8 147.062 217.32C146.622 216.853 146.402 216.227 146.402 215.44C146.402 214.893 146.528 214.44 146.782 214.08C147.035 213.72 147.368 213.447 147.782 213.26C147.462 213.073 147.202 212.84 147.002 212.56C146.802 212.28 146.702 211.96 146.702 211.6C146.702 210.8 147.062 210.153 147.782 209.66C147.515 209.353 147.302 209.013 147.142 208.64C146.995 208.253 146.922 207.827 146.922 207.36C146.922 206.627 147.088 206 147.422 205.48C147.768 204.947 148.235 204.54 148.822 204.26C149.422 203.98 150.102 203.84 150.862 203.84C151.422 203.84 151.948 203.92 152.442 204.08H155.822V205.5H154.282C154.455 205.767 154.582 206.06 154.662 206.38C154.755 206.687 154.802 207.013 154.802 207.36C154.802 208.12 154.622 208.76 154.262 209.28C153.915 209.8 153.442 210.2 152.842 210.48C152.255 210.747 151.595 210.88 150.862 210.88C150.488 210.88 150.148 210.84 149.842 210.76C149.535 210.68 149.228 210.567 148.922 210.42C148.575 210.593 148.402 210.86 148.402 211.22C148.402 211.887 148.962 212.22 150.082 212.22H151.742C152.488 212.22 153.148 212.32 153.722 212.52C154.295 212.707 154.742 213.02 155.062 213.46C155.395 213.887 155.562 214.473 155.562 215.22C155.562 215.98 155.348 216.613 154.922 217.12C154.495 217.627 153.942 218.007 153.262 218.26C152.582 218.513 151.855 218.64 151.082 218.64ZM151.042 217.24C151.842 217.24 152.522 217.087 153.082 216.78C153.642 216.487 153.922 216.033 153.922 215.42C153.922 214.273 153.228 213.7 151.842 213.7H150.142C149.488 213.7 148.975 213.84 148.602 214.12C148.228 214.413 148.042 214.847 148.042 215.42C148.042 215.86 148.182 216.213 148.462 216.48C148.742 216.747 149.108 216.94 149.562 217.06C150.015 217.18 150.508 217.24 151.042 217.24ZM150.822 209.48C151.515 209.48 152.082 209.28 152.522 208.88C152.962 208.48 153.182 207.973 153.182 207.36C153.182 206.747 152.962 206.24 152.522 205.84C152.082 205.44 151.515 205.24 150.822 205.24C150.128 205.24 149.568 205.44 149.142 205.84C148.728 206.24 148.522 206.747 148.522 207.36C148.522 207.973 148.722 208.48 149.122 208.88C149.535 209.28 150.102 209.48 150.822 209.48ZM157.728 214V204.08H159.248L159.388 205.98C159.694 205.327 160.161 204.807 160.788 204.42C161.414 204.033 162.188 203.84 163.108 203.84V205.6H162.648C161.554 205.6 160.741 205.893 160.208 206.48C159.674 207.067 159.408 207.907 159.408 209V214H157.728ZM169.202 214.24C168.296 214.24 167.462 214.04 166.702 213.64C165.942 213.227 165.336 212.633 164.882 211.86C164.429 211.073 164.202 210.127 164.202 209.02C164.202 207.967 164.422 207.053 164.862 206.28C165.316 205.507 165.922 204.907 166.682 204.48C167.456 204.053 168.322 203.84 169.282 203.84C170.202 203.84 171.042 204.04 171.802 204.44C172.576 204.84 173.196 205.427 173.662 206.2C174.129 206.973 174.362 207.913 174.362 209.02C174.362 210.033 174.142 210.933 173.702 211.72C173.262 212.507 172.649 213.127 171.862 213.58C171.089 214.02 170.202 214.24 169.202 214.24ZM169.202 212.78C169.856 212.78 170.442 212.627 170.962 212.32C171.482 212 171.896 211.56 172.202 211C172.509 210.44 172.662 209.78 172.662 209.02C172.662 208.3 172.529 207.66 172.262 207.1C171.996 206.54 171.609 206.1 171.102 205.78C170.596 205.46 169.982 205.3 169.262 205.3C168.529 205.3 167.909 205.467 167.402 205.8C166.909 206.133 166.536 206.58 166.282 207.14C166.029 207.7 165.902 208.327 165.902 209.02C165.902 209.9 166.062 210.62 166.382 211.18C166.702 211.727 167.116 212.133 167.622 212.4C168.129 212.653 168.656 212.78 169.202 212.78ZM178.321 214L175.421 204.08H177.101L179.201 211.86L181.521 204.08H183.421L185.761 211.86L187.841 204.08H189.541L186.641 214H184.921L182.481 205.82L180.041 214H178.321ZM198.693 214L195.793 204.08H197.473L199.573 211.86L201.893 204.08H203.793L206.133 211.86L208.213 204.08H209.913L207.013 214H205.293L202.853 205.82L200.413 214H198.693ZM212.791 201.88C212.457 201.88 212.177 201.773 211.951 201.56C211.737 201.333 211.631 201.053 211.631 200.72C211.631 200.4 211.737 200.133 211.951 199.92C212.177 199.707 212.457 199.6 212.791 199.6C213.111 199.6 213.384 199.707 213.611 199.92C213.837 200.133 213.951 200.4 213.951 200.72C213.951 201.053 213.837 201.333 213.611 201.56C213.384 201.773 213.111 201.88 212.791 201.88ZM211.951 214V204.08H213.631V214H211.951ZM220.476 214C219.569 214 218.856 213.78 218.336 213.34C217.816 212.9 217.556 212.107 217.556 210.96V205.5H215.836V204.08H217.556V201.7H219.236V204.08H222.016V205.5H219.236V210.96C219.236 211.587 219.362 212.013 219.616 212.24C219.869 212.453 220.316 212.56 220.956 212.56H222.016V214H220.476ZM224.29 214V200H225.97V205.78C226.303 205.167 226.777 204.693 227.39 204.36C228.003 204.013 228.67 203.84 229.39 203.84C230.537 203.84 231.457 204.2 232.15 204.92C232.843 205.627 233.19 206.72 233.19 208.2V214H231.53V208.38C231.53 207.353 231.317 206.58 230.89 206.06C230.477 205.54 229.857 205.28 229.03 205.28C228.163 205.28 227.437 205.593 226.85 206.22C226.263 206.833 225.97 207.713 225.97 208.86V214H224.29ZM241.028 214V200H242.708V214H241.028ZM249.922 214.24C249.002 214.24 248.169 214.027 247.422 213.6C246.689 213.173 246.109 212.573 245.682 211.8C245.255 211.013 245.042 210.093 245.042 209.04C245.042 208 245.242 207.093 245.642 206.32C246.055 205.533 246.629 204.927 247.362 204.5C248.109 204.06 248.975 203.84 249.962 203.84C250.895 203.84 251.709 204.047 252.402 204.46C253.095 204.873 253.635 205.433 254.022 206.14C254.422 206.833 254.622 207.613 254.622 208.48C254.622 208.667 254.622 208.813 254.622 208.92C254.622 209.027 254.615 209.193 254.602 209.42H246.702C246.742 210.073 246.895 210.66 247.162 211.18C247.442 211.687 247.815 212.087 248.282 212.38C248.762 212.673 249.309 212.82 249.922 212.82C250.615 212.82 251.195 212.66 251.662 212.34C252.129 212.02 252.469 211.587 252.682 211.04H254.342C254.169 211.653 253.882 212.2 253.482 212.68C253.082 213.16 252.582 213.54 251.982 213.82C251.395 214.1 250.709 214.24 249.922 214.24ZM246.722 208.12H252.962C252.922 207.227 252.615 206.527 252.042 206.02C251.469 205.513 250.762 205.26 249.922 205.26C249.122 205.26 248.409 205.507 247.782 206C247.169 206.48 246.815 207.187 246.722 208.12ZM260.149 214.24C259.469 214.24 258.849 214.127 258.289 213.9C257.729 213.673 257.282 213.333 256.949 212.88C256.629 212.413 256.469 211.847 256.469 211.18C256.469 210.407 256.669 209.793 257.069 209.34C257.469 208.873 257.995 208.54 258.649 208.34C259.315 208.127 260.029 208.02 260.789 208.02H263.469C263.469 207.327 263.349 206.78 263.109 206.38C262.882 205.98 262.582 205.693 262.209 205.52C261.835 205.347 261.422 205.26 260.969 205.26C260.315 205.26 259.749 205.42 259.269 205.74C258.802 206.047 258.509 206.527 258.389 207.18H256.669C256.735 206.46 256.975 205.853 257.389 205.36C257.802 204.867 258.322 204.493 258.949 204.24C259.589 203.973 260.262 203.84 260.969 203.84C261.969 203.84 262.775 204.027 263.389 204.4C264.002 204.76 264.449 205.247 264.729 205.86C265.009 206.473 265.149 207.153 265.149 207.9V210.94C265.149 211.433 265.209 211.807 265.329 212.06C265.449 212.313 265.755 212.467 266.249 212.52V214C265.809 214 265.409 213.947 265.049 213.84C264.689 213.72 264.382 213.533 264.129 213.28C263.889 213.013 263.715 212.667 263.609 212.24C263.275 212.8 262.815 213.273 262.229 213.66C261.655 214.047 260.962 214.24 260.149 214.24ZM260.409 212.82C261.075 212.82 261.635 212.653 262.089 212.32C262.542 211.973 262.882 211.533 263.109 211C263.349 210.467 263.469 209.913 263.469 209.34V209.32H260.929C260.462 209.32 260.022 209.373 259.609 209.48C259.195 209.573 258.862 209.753 258.609 210.02C258.355 210.273 258.229 210.633 258.229 211.1C258.229 211.7 258.442 212.14 258.869 212.42C259.295 212.687 259.809 212.82 260.409 212.82ZM268.275 214V204.08H269.795L269.935 205.98C270.241 205.327 270.708 204.807 271.335 204.42C271.961 204.033 272.735 203.84 273.655 203.84V205.6H273.195C272.101 205.6 271.288 205.893 270.755 206.48C270.221 207.067 269.955 207.907 269.955 209V214H268.275ZM275.54 214V204.08H277.06L277.16 205.86C277.48 205.233 277.94 204.74 278.54 204.38C279.14 204.02 279.82 203.84 280.58 203.84C281.753 203.84 282.687 204.2 283.38 204.92C284.087 205.627 284.44 206.72 284.44 208.2V214H282.76V208.38C282.76 207.353 282.547 206.58 282.12 206.06C281.693 205.54 281.053 205.28 280.2 205.28C279.347 205.28 278.633 205.593 278.06 206.22C277.5 206.833 277.22 207.713 277.22 208.86V214H275.54ZM291.465 214.24C290.545 214.24 289.712 214.027 288.965 213.6C288.232 213.173 287.652 212.573 287.225 211.8C286.798 211.013 286.585 210.093 286.585 209.04C286.585 208 286.785 207.093 287.185 206.32C287.598 205.533 288.172 204.927 288.905 204.5C289.652 204.06 290.518 203.84 291.505 203.84C292.438 203.84 293.252 204.047 293.945 204.46C294.638 204.873 295.178 205.433 295.565 206.14C295.965 206.833 296.165 207.613 296.165 208.48C296.165 208.667 296.165 208.813 296.165 208.92C296.165 209.027 296.158 209.193 296.145 209.42H288.245C288.285 210.073 288.438 210.66 288.705 211.18C288.985 211.687 289.358 212.087 289.825 212.38C290.305 212.673 290.852 212.82 291.465 212.82C292.158 212.82 292.738 212.66 293.205 212.34C293.672 212.02 294.012 211.587 294.225 211.04H295.885C295.712 211.653 295.425 212.2 295.025 212.68C294.625 213.16 294.125 213.54 293.525 213.82C292.938 214.1 292.252 214.24 291.465 214.24ZM288.265 208.12H294.505C294.465 207.227 294.158 206.527 293.585 206.02C293.012 205.513 292.305 205.26 291.465 205.26C290.665 205.26 289.952 205.507 289.325 206C288.712 206.48 288.358 207.187 288.265 208.12ZM298.392 214V204.08H299.912L300.052 205.98C300.358 205.327 300.825 204.807 301.452 204.42C302.078 204.033 302.852 203.84 303.772 203.84V205.6H303.312C302.218 205.6 301.405 205.893 300.872 206.48C300.338 207.067 300.072 207.907 300.072 209V214H298.392ZM309.457 214.24C308.671 214.24 307.964 214.107 307.337 213.84C306.711 213.56 306.204 213.173 305.817 212.68C305.444 212.173 305.211 211.58 305.117 210.9H306.837C306.944 211.42 307.217 211.873 307.657 212.26C308.111 212.633 308.717 212.82 309.477 212.82C310.184 212.82 310.704 212.673 311.037 212.38C311.371 212.073 311.537 211.713 311.537 211.3C311.537 210.9 311.437 210.593 311.237 210.38C311.051 210.167 310.771 210.007 310.397 209.9C310.037 209.78 309.591 209.667 309.057 209.56C308.497 209.44 307.951 209.28 307.417 209.08C306.884 208.867 306.444 208.58 306.097 208.22C305.751 207.86 305.577 207.387 305.577 206.8C305.577 206.213 305.724 205.7 306.017 205.26C306.311 204.82 306.724 204.473 307.257 204.22C307.804 203.967 308.444 203.84 309.177 203.84C310.231 203.84 311.091 204.107 311.757 204.64C312.437 205.16 312.831 205.907 312.937 206.88H311.277C311.211 206.373 310.991 205.98 310.617 205.7C310.257 205.407 309.771 205.26 309.157 205.26C308.557 205.26 308.091 205.387 307.757 205.64C307.437 205.893 307.277 206.227 307.277 206.64C307.277 206.907 307.371 207.133 307.557 207.32C307.744 207.507 308.011 207.667 308.357 207.8C308.717 207.933 309.137 208.053 309.617 208.16C310.284 208.293 310.891 208.46 311.437 208.66C311.984 208.86 312.424 209.153 312.757 209.54C313.091 209.913 313.257 210.453 313.257 211.16C313.271 211.747 313.117 212.273 312.797 212.74C312.491 213.207 312.051 213.573 311.477 213.84C310.917 214.107 310.244 214.24 309.457 214.24ZM21.92 236V227.5H20.42V226.08H21.92V224.76C21.92 223.8 22.16 223.1 22.64 222.66C23.12 222.22 23.82 222 24.74 222H25.74V223.44H25C24.4933 223.44 24.1333 223.547 23.92 223.76C23.7067 223.96 23.6 224.307 23.6 224.8V226.08H26.04V227.5H23.6V236H21.92ZM28.0402 236V226.08H29.5602L29.7002 227.98C30.0068 227.327 30.4735 226.807 31.1002 226.42C31.7268 226.033 32.5002 225.84 33.4202 225.84V227.6H32.9602C31.8668 227.6 31.0535 227.893 30.5202 228.48C29.9868 229.067 29.7202 229.907 29.7202 231V236H28.0402ZM39.5147 236.24C38.608 236.24 37.7747 236.04 37.0147 235.64C36.2547 235.227 35.648 234.633 35.1947 233.86C34.7414 233.073 34.5147 232.127 34.5147 231.02C34.5147 229.967 34.7347 229.053 35.1747 228.28C35.628 227.507 36.2347 226.907 36.9947 226.48C37.768 226.053 38.6347 225.84 39.5947 225.84C40.5147 225.84 41.3547 226.04 42.1147 226.44C42.888 226.84 43.508 227.427 43.9747 228.2C44.4414 228.973 44.6747 229.913 44.6747 231.02C44.6747 232.033 44.4547 232.933 44.0147 233.72C43.5747 234.507 42.9614 235.127 42.1747 235.58C41.4014 236.02 40.5147 236.24 39.5147 236.24ZM39.5147 234.78C40.168 234.78 40.7547 234.627 41.2747 234.32C41.7947 234 42.208 233.56 42.5147 233C42.8214 232.44 42.9747 231.78 42.9747 231.02C42.9747 230.3 42.8414 229.66 42.5747 229.1C42.308 228.54 41.9214 228.1 41.4147 227.78C40.908 227.46 40.2947 227.3 39.5747 227.3C38.8414 227.3 38.2214 227.467 37.7147 227.8C37.2214 228.133 36.848 228.58 36.5947 229.14C36.3414 229.7 36.2147 230.327 36.2147 231.02C36.2147 231.9 36.3747 232.62 36.6947 233.18C37.0147 233.727 37.428 234.133 37.9347 234.4C38.4414 234.653 38.968 234.78 39.5147 234.78ZM47.005 236V226.08H48.525L48.645 227.52C48.965 226.987 49.3917 226.573 49.925 226.28C50.4583 225.987 51.0583 225.84 51.725 225.84C52.5117 225.84 53.185 226 53.745 226.32C54.3183 226.64 54.7583 227.127 55.065 227.78C55.4117 227.18 55.885 226.707 56.485 226.36C57.0983 226.013 57.7583 225.84 58.465 225.84C59.265 225.84 59.9517 226 60.525 226.32C61.1117 226.627 61.565 227.107 61.885 227.76C62.205 228.4 62.365 229.213 62.365 230.2V236H60.705V230.38C60.705 229.353 60.4983 228.58 60.085 228.06C59.6717 227.54 59.0783 227.28 58.305 227.28C57.505 227.28 56.8383 227.593 56.305 228.22C55.785 228.833 55.525 229.713 55.525 230.86V236H53.845V230.38C53.845 229.353 53.6383 228.58 53.225 228.06C52.8117 227.54 52.2183 227.28 51.445 227.28C50.6583 227.28 49.9983 227.593 49.465 228.22C48.945 228.833 48.685 229.713 48.685 230.86V236H47.005ZM74.6886 236.24C73.6753 236.24 72.8019 236.007 72.0686 235.54C71.3353 235.073 70.7686 234.447 70.3686 233.66C69.9686 232.873 69.7686 231.993 69.7686 231.02C69.7686 230.06 69.9619 229.187 70.3486 228.4C70.7486 227.613 71.3153 226.993 72.0486 226.54C72.7819 226.073 73.6686 225.84 74.7086 225.84C75.5219 225.84 76.2419 226.007 76.8686 226.34C77.4953 226.673 77.9819 227.14 78.3286 227.74V222H80.0086V236H78.4886L78.3286 234.36C78.0086 234.84 77.5486 235.273 76.9486 235.66C76.3486 236.047 75.5953 236.24 74.6886 236.24ZM74.8686 234.78C75.6019 234.78 76.2219 234.613 76.7286 234.28C77.2353 233.933 77.6153 233.48 77.8686 232.92C78.1353 232.347 78.2686 231.72 78.2686 231.04C78.2686 230.32 78.1353 229.68 77.8686 229.12C77.6019 228.56 77.2153 228.12 76.7086 227.8C76.2019 227.467 75.5886 227.3 74.8686 227.3C74.2286 227.3 73.6553 227.453 73.1486 227.76C72.6419 228.067 72.2353 228.5 71.9286 229.06C71.6353 229.607 71.4886 230.267 71.4886 231.04C71.4886 231.813 71.6419 232.48 71.9486 233.04C72.2553 233.6 72.6619 234.033 73.1686 234.34C73.6886 234.633 74.2553 234.78 74.8686 234.78ZM83.7672 223.88C83.4339 223.88 83.1539 223.773 82.9272 223.56C82.7139 223.333 82.6072 223.053 82.6072 222.72C82.6072 222.4 82.7139 222.133 82.9272 221.92C83.1539 221.707 83.4339 221.6 83.7672 221.6C84.0872 221.6 84.3605 221.707 84.5872 221.92C84.8139 222.133 84.9272 222.4 84.9272 222.72C84.9272 223.053 84.8139 223.333 84.5872 223.56C84.3605 223.773 84.0872 223.88 83.7672 223.88ZM82.9272 236V226.08H84.6072V236H82.9272ZM88.0723 236V227.5H86.5723V226.08H88.0723V224.76C88.0723 223.8 88.3123 223.1 88.7923 222.66C89.2723 222.22 89.9723 222 90.8923 222H91.8923V223.44H91.1523C90.6457 223.44 90.2857 223.547 90.0723 223.76C89.859 223.96 89.7523 224.307 89.7523 224.8V226.08H92.1923V227.5H89.7523V236H88.0723ZM94.7325 236V227.5H93.2325V226.08H94.7325V224.76C94.7325 223.8 94.9725 223.1 95.4525 222.66C95.9325 222.22 96.6325 222 97.5525 222H98.5525V223.44H97.8125C97.3058 223.44 96.9458 223.547 96.7325 223.76C96.5192 223.96 96.4125 224.307 96.4125 224.8V226.08H98.8525V227.5H96.4125V236H94.7325ZM104.922 236.24C104.002 236.24 103.169 236.027 102.422 235.6C101.689 235.173 101.109 234.573 100.682 233.8C100.255 233.013 100.042 232.093 100.042 231.04C100.042 230 100.242 229.093 100.642 228.32C101.055 227.533 101.629 226.927 102.362 226.5C103.109 226.06 103.975 225.84 104.962 225.84C105.895 225.84 106.709 226.047 107.402 226.46C108.095 226.873 108.635 227.433 109.022 228.14C109.422 228.833 109.622 229.613 109.622 230.48C109.622 230.667 109.622 230.813 109.622 230.92C109.622 231.027 109.615 231.193 109.602 231.42H101.702C101.742 232.073 101.895 232.66 102.162 233.18C102.442 233.687 102.815 234.087 103.282 234.38C103.762 234.673 104.309 234.82 104.922 234.82C105.615 234.82 106.195 234.66 106.662 234.34C107.129 234.02 107.469 233.587 107.682 233.04H109.342C109.169 233.653 108.882 234.2 108.482 234.68C108.082 235.16 107.582 235.54 106.982 235.82C106.395 236.1 105.709 236.24 104.922 236.24ZM101.722 230.12H107.962C107.922 229.227 107.615 228.527 107.042 228.02C106.469 227.513 105.762 227.26 104.922 227.26C104.122 227.26 103.409 227.507 102.782 228C102.169 228.48 101.815 229.187 101.722 230.12ZM111.849 236V226.08H113.369L113.509 227.98C113.815 227.327 114.282 226.807 114.909 226.42C115.535 226.033 116.309 225.84 117.229 225.84V227.6H116.769C115.675 227.6 114.862 227.893 114.329 228.48C113.795 229.067 113.529 229.907 113.529 231V236H111.849ZM123.203 236.24C122.283 236.24 121.45 236.027 120.703 235.6C119.97 235.173 119.39 234.573 118.963 233.8C118.537 233.013 118.323 232.093 118.323 231.04C118.323 230 118.523 229.093 118.923 228.32C119.337 227.533 119.91 226.927 120.643 226.5C121.39 226.06 122.257 225.84 123.243 225.84C124.177 225.84 124.99 226.047 125.683 226.46C126.377 226.873 126.917 227.433 127.303 228.14C127.703 228.833 127.903 229.613 127.903 230.48C127.903 230.667 127.903 230.813 127.903 230.92C127.903 231.027 127.897 231.193 127.883 231.42H119.983C120.023 232.073 120.177 232.66 120.443 233.18C120.723 233.687 121.097 234.087 121.563 234.38C122.043 234.673 122.59 234.82 123.203 234.82C123.897 234.82 124.477 234.66 124.943 234.34C125.41 234.02 125.75 233.587 125.963 233.04H127.623C127.45 233.653 127.163 234.2 126.763 234.68C126.363 235.16 125.863 235.54 125.263 235.82C124.677 236.1 123.99 236.24 123.203 236.24ZM120.003 230.12H126.243C126.203 229.227 125.897 228.527 125.323 228.02C124.75 227.513 124.043 227.26 123.203 227.26C122.403 227.26 121.69 227.507 121.063 228C120.45 228.48 120.097 229.187 120.003 230.12ZM130.13 236V226.08H131.65L131.75 227.86C132.07 227.233 132.53 226.74 133.13 226.38C133.73 226.02 134.41 225.84 135.17 225.84C136.343 225.84 137.277 226.2 137.97 226.92C138.677 227.627 139.03 228.72 139.03 230.2V236H137.35V230.38C137.35 229.353 137.137 228.58 136.71 228.06C136.283 227.54 135.643 227.28 134.79 227.28C133.937 227.28 133.223 227.593 132.65 228.22C132.09 228.833 131.81 229.713 131.81 230.86V236H130.13ZM145.515 236C144.608 236 143.895 235.78 143.375 235.34C142.855 234.9 142.595 234.107 142.595 232.96V227.5H140.875V226.08H142.595V223.7H144.275V226.08H147.055V227.5H144.275V232.96C144.275 233.587 144.402 234.013 144.655 234.24C144.908 234.453 145.355 234.56 145.995 234.56H147.055V236H145.515ZM159.922 236.24C159.109 236.24 158.382 236.073 157.742 235.74C157.116 235.407 156.636 234.94 156.302 234.34L156.142 236H154.622V222H156.302V227.72C156.622 227.24 157.076 226.807 157.662 226.42C158.262 226.033 159.022 225.84 159.942 225.84C160.942 225.84 161.809 226.067 162.542 226.52C163.276 226.973 163.842 227.593 164.242 228.38C164.642 229.167 164.842 230.06 164.842 231.06C164.842 232.047 164.642 232.933 164.242 233.72C163.842 234.507 163.269 235.127 162.522 235.58C161.789 236.02 160.922 236.24 159.922 236.24ZM159.742 234.78C160.422 234.78 161.016 234.627 161.522 234.32C162.029 234 162.422 233.56 162.702 233C162.996 232.427 163.142 231.773 163.142 231.04C163.142 230.333 163.002 229.7 162.722 229.14C162.456 228.567 162.069 228.12 161.562 227.8C161.056 227.467 160.449 227.3 159.742 227.3C159.076 227.3 158.482 227.46 157.962 227.78C157.456 228.087 157.056 228.52 156.762 229.08C156.482 229.64 156.342 230.293 156.342 231.04C156.342 231.733 156.482 232.367 156.762 232.94C157.042 233.5 157.436 233.947 157.942 234.28C158.449 234.613 159.049 234.78 159.742 234.78ZM170.481 236.24C169.801 236.24 169.181 236.127 168.621 235.9C168.061 235.673 167.614 235.333 167.281 234.88C166.961 234.413 166.801 233.847 166.801 233.18C166.801 232.407 167.001 231.793 167.401 231.34C167.801 230.873 168.327 230.54 168.981 230.34C169.647 230.127 170.361 230.02 171.121 230.02H173.801C173.801 229.327 173.681 228.78 173.441 228.38C173.214 227.98 172.914 227.693 172.541 227.52C172.167 227.347 171.754 227.26 171.301 227.26C170.647 227.26 170.081 227.42 169.601 227.74C169.134 228.047 168.841 228.527 168.721 229.18H167.001C167.067 228.46 167.307 227.853 167.721 227.36C168.134 226.867 168.654 226.493 169.281 226.24C169.921 225.973 170.594 225.84 171.301 225.84C172.301 225.84 173.107 226.027 173.721 226.4C174.334 226.76 174.781 227.247 175.061 227.86C175.341 228.473 175.481 229.153 175.481 229.9V232.94C175.481 233.433 175.541 233.807 175.661 234.06C175.781 234.313 176.087 234.467 176.581 234.52V236C176.141 236 175.741 235.947 175.381 235.84C175.021 235.72 174.714 235.533 174.461 235.28C174.221 235.013 174.047 234.667 173.941 234.24C173.607 234.8 173.147 235.273 172.561 235.66C171.987 236.047 171.294 236.24 170.481 236.24ZM170.741 234.82C171.407 234.82 171.967 234.653 172.421 234.32C172.874 233.973 173.214 233.533 173.441 233C173.681 232.467 173.801 231.913 173.801 231.34V231.32H171.261C170.794 231.32 170.354 231.373 169.941 231.48C169.527 231.573 169.194 231.753 168.941 232.02C168.687 232.273 168.561 232.633 168.561 233.1C168.561 233.7 168.774 234.14 169.201 234.42C169.627 234.687 170.141 234.82 170.741 234.82ZM182.932 236.24C181.999 236.24 181.152 236.027 180.392 235.6C179.646 235.173 179.052 234.573 178.612 233.8C178.172 233.013 177.952 232.093 177.952 231.04C177.952 230.013 178.166 229.113 178.592 228.34C179.019 227.553 179.606 226.94 180.352 226.5C181.099 226.06 181.959 225.84 182.932 225.84C184.106 225.84 185.092 226.147 185.892 226.76C186.706 227.373 187.219 228.193 187.432 229.22H185.712C185.579 228.607 185.252 228.133 184.732 227.8C184.212 227.453 183.606 227.28 182.912 227.28C182.206 227.28 181.612 227.453 181.132 227.8C180.652 228.147 180.286 228.607 180.032 229.18C179.792 229.753 179.672 230.373 179.672 231.04C179.672 231.773 179.812 232.427 180.092 233C180.372 233.573 180.752 234.02 181.232 234.34C181.726 234.66 182.286 234.82 182.912 234.82C183.606 234.82 184.212 234.653 184.732 234.32C185.252 233.973 185.579 233.487 185.712 232.86H187.432C187.299 233.527 187.026 234.113 186.612 234.62C186.199 235.127 185.679 235.527 185.052 235.82C184.426 236.1 183.719 236.24 182.932 236.24ZM189.778 236V222H191.458V230.26L195.518 226.08H197.578L193.178 230.56L198.138 236H195.998L191.458 230.86V236H189.778ZM203.406 240.64C202.619 240.64 201.866 240.54 201.146 240.34C200.426 240.14 199.839 239.8 199.386 239.32C198.946 238.853 198.726 238.227 198.726 237.44C198.726 236.893 198.853 236.44 199.106 236.08C199.359 235.72 199.693 235.447 200.106 235.26C199.786 235.073 199.526 234.84 199.326 234.56C199.126 234.28 199.026 233.96 199.026 233.6C199.026 232.8 199.386 232.153 200.106 231.66C199.839 231.353 199.626 231.013 199.466 230.64C199.319 230.253 199.246 229.827 199.246 229.36C199.246 228.627 199.413 228 199.746 227.48C200.093 226.947 200.559 226.54 201.146 226.26C201.746 225.98 202.426 225.84 203.186 225.84C203.746 225.84 204.273 225.92 204.766 226.08H208.146V227.5H206.606C206.779 227.767 206.906 228.06 206.986 228.38C207.079 228.687 207.126 229.013 207.126 229.36C207.126 230.12 206.946 230.76 206.586 231.28C206.239 231.8 205.766 232.2 205.166 232.48C204.579 232.747 203.919 232.88 203.186 232.88C202.813 232.88 202.473 232.84 202.166 232.76C201.859 232.68 201.553 232.567 201.246 232.42C200.899 232.593 200.726 232.86 200.726 233.22C200.726 233.887 201.286 234.22 202.406 234.22H204.066C204.813 234.22 205.473 234.32 206.046 234.52C206.619 234.707 207.066 235.02 207.386 235.46C207.719 235.887 207.886 236.473 207.886 237.22C207.886 237.98 207.673 238.613 207.246 239.12C206.819 239.627 206.266 240.007 205.586 240.26C204.906 240.513 204.179 240.64 203.406 240.64ZM203.366 239.24C204.166 239.24 204.846 239.087 205.406 238.78C205.966 238.487 206.246 238.033 206.246 237.42C206.246 236.273 205.553 235.7 204.166 235.7H202.466C201.813 235.7 201.299 235.84 200.926 236.12C200.553 236.413 200.366 236.847 200.366 237.42C200.366 237.86 200.506 238.213 200.786 238.48C201.066 238.747 201.433 238.94 201.886 239.06C202.339 239.18 202.833 239.24 203.366 239.24ZM203.146 231.48C203.839 231.48 204.406 231.28 204.846 230.88C205.286 230.48 205.506 229.973 205.506 229.36C205.506 228.747 205.286 228.24 204.846 227.84C204.406 227.44 203.839 227.24 203.146 227.24C202.453 227.24 201.893 227.44 201.466 227.84C201.053 228.24 200.846 228.747 200.846 229.36C200.846 229.973 201.046 230.48 201.446 230.88C201.859 231.28 202.426 231.48 203.146 231.48ZM210.052 236V226.08H211.572L211.712 227.98C212.019 227.327 212.485 226.807 213.112 226.42C213.739 226.033 214.512 225.84 215.432 225.84V227.6H214.972C213.879 227.6 213.065 227.893 212.532 228.48C211.999 229.067 211.732 229.907 211.732 231V236H210.052ZM221.526 236.24C220.62 236.24 219.786 236.04 219.026 235.64C218.266 235.227 217.66 234.633 217.206 233.86C216.753 233.073 216.526 232.127 216.526 231.02C216.526 229.967 216.746 229.053 217.186 228.28C217.64 227.507 218.246 226.907 219.006 226.48C219.78 226.053 220.646 225.84 221.606 225.84C222.526 225.84 223.366 226.04 224.126 226.44C224.9 226.84 225.52 227.427 225.986 228.2C226.453 228.973 226.686 229.913 226.686 231.02C226.686 232.033 226.466 232.933 226.026 233.72C225.586 234.507 224.973 235.127 224.186 235.58C223.413 236.02 222.526 236.24 221.526 236.24ZM221.526 234.78C222.18 234.78 222.766 234.627 223.286 234.32C223.806 234 224.22 233.56 224.526 233C224.833 232.44 224.986 231.78 224.986 231.02C224.986 230.3 224.853 229.66 224.586 229.1C224.32 228.54 223.933 228.1 223.426 227.78C222.92 227.46 222.306 227.3 221.586 227.3C220.853 227.3 220.233 227.467 219.726 227.8C219.233 228.133 218.86 228.58 218.606 229.14C218.353 229.7 218.226 230.327 218.226 231.02C218.226 231.9 218.386 232.62 218.706 233.18C219.026 233.727 219.44 234.133 219.946 234.4C220.453 234.653 220.98 234.78 221.526 234.78ZM232.657 236.24C231.883 236.24 231.203 236.087 230.617 235.78C230.043 235.46 229.597 234.98 229.277 234.34C228.957 233.687 228.797 232.867 228.797 231.88V226.08H230.477V231.7C230.477 232.727 230.69 233.5 231.117 234.02C231.543 234.54 232.183 234.8 233.037 234.8C233.89 234.8 234.597 234.493 235.157 233.88C235.73 233.253 236.017 232.367 236.017 231.22V226.08H237.697V236H236.177L236.077 234.22C235.757 234.847 235.297 235.34 234.697 235.7C234.097 236.06 233.417 236.24 232.657 236.24ZM240.462 236V226.08H241.982L242.082 227.86C242.402 227.233 242.862 226.74 243.462 226.38C244.062 226.02 244.742 225.84 245.502 225.84C246.675 225.84 247.609 226.2 248.302 226.92C249.009 227.627 249.362 228.72 249.362 230.2V236H247.682V230.38C247.682 229.353 247.469 228.58 247.042 228.06C246.615 227.54 245.975 227.28 245.122 227.28C244.269 227.28 243.555 227.593 242.982 228.22C242.422 228.833 242.142 229.713 242.142 230.86V236H240.462ZM256.427 236.24C255.414 236.24 254.54 236.007 253.807 235.54C253.074 235.073 252.507 234.447 252.107 233.66C251.707 232.873 251.507 231.993 251.507 231.02C251.507 230.06 251.7 229.187 252.087 228.4C252.487 227.613 253.054 226.993 253.787 226.54C254.52 226.073 255.407 225.84 256.447 225.84C257.26 225.84 257.98 226.007 258.607 226.34C259.234 226.673 259.72 227.14 260.067 227.74V222H261.747V236H260.227L260.067 234.36C259.747 234.84 259.287 235.273 258.687 235.66C258.087 236.047 257.334 236.24 256.427 236.24ZM256.607 234.78C257.34 234.78 257.96 234.613 258.467 234.28C258.974 233.933 259.354 233.48 259.607 232.92C259.874 232.347 260.007 231.72 260.007 231.04C260.007 230.32 259.874 229.68 259.607 229.12C259.34 228.56 258.954 228.12 258.447 227.8C257.94 227.467 257.327 227.3 256.607 227.3C255.967 227.3 255.394 227.453 254.887 227.76C254.38 228.067 253.974 228.5 253.667 229.06C253.374 229.607 253.227 230.267 253.227 231.04C253.227 231.813 253.38 232.48 253.687 233.04C253.994 233.6 254.4 234.033 254.907 234.34C255.427 234.633 255.994 234.78 256.607 234.78ZM268.285 236.24C267.499 236.24 266.792 236.107 266.165 235.84C265.539 235.56 265.032 235.173 264.645 234.68C264.272 234.173 264.039 233.58 263.945 232.9H265.665C265.772 233.42 266.045 233.873 266.485 234.26C266.939 234.633 267.545 234.82 268.305 234.82C269.012 234.82 269.532 234.673 269.865 234.38C270.199 234.073 270.365 233.713 270.365 233.3C270.365 232.9 270.265 232.593 270.065 232.38C269.879 232.167 269.599 232.007 269.225 231.9C268.865 231.78 268.419 231.667 267.885 231.56C267.325 231.44 266.779 231.28 266.245 231.08C265.712 230.867 265.272 230.58 264.925 230.22C264.579 229.86 264.405 229.387 264.405 228.8C264.405 228.213 264.552 227.7 264.845 227.26C265.139 226.82 265.552 226.473 266.085 226.22C266.632 225.967 267.272 225.84 268.005 225.84C269.059 225.84 269.919 226.107 270.585 226.64C271.265 227.16 271.659 227.907 271.765 228.88H270.105C270.039 228.373 269.819 227.98 269.445 227.7C269.085 227.407 268.599 227.26 267.985 227.26C267.385 227.26 266.919 227.387 266.585 227.64C266.265 227.893 266.105 228.227 266.105 228.64C266.105 228.907 266.199 229.133 266.385 229.32C266.572 229.507 266.839 229.667 267.185 229.8C267.545 229.933 267.965 230.053 268.445 230.16C269.112 230.293 269.719 230.46 270.265 230.66C270.812 230.86 271.252 231.153 271.585 231.54C271.919 231.913 272.085 232.453 272.085 233.16C272.099 233.747 271.945 234.273 271.625 234.74C271.319 235.207 270.879 235.573 270.305 235.84C269.745 236.107 269.072 236.24 268.285 236.24ZM275.065 236.1C274.732 236.1 274.452 235.993 274.225 235.78C274.012 235.553 273.905 235.28 273.905 234.96C273.905 234.64 274.012 234.373 274.225 234.16C274.452 233.933 274.732 233.82 275.065 233.82C275.385 233.82 275.652 233.933 275.865 234.16C276.092 234.373 276.205 234.64 276.205 234.96C276.205 235.28 276.092 235.553 275.865 235.78C275.652 235.993 275.385 236.1 275.065 236.1Z" fill="#A7ADBE"/>
<mask id="path-10-inside-1_1600_10522" fill="white">
<path d="M0 20C0 8.9543 8.95431 0 20 0H340C351.046 0 360 8.95431 360 20V240C360 251.046 351.046 260 340 260H20C8.95432 260 0 251.046 0 240V20Z"/>
</mask>
<path d="M20 0V1H340V0V-1H20V0ZM360 20H359V240H360H361V20H360ZM340 260V259H20V260V261H340V260ZM0 240H1V20H0H-1V240H0ZM20 260V259C9.5066 259 1 250.493 1 240H0H-1C-1 251.598 8.40203 261 20 261V260ZM360 240H359C359 250.493 350.493 259 340 259V260V261C351.598 261 361 251.598 361 240H360ZM340 0V1C350.493 1 359 9.50659 359 20H360H361C361 8.40202 351.598 -1 340 -1V0ZM20 0V-1C8.40202 -1 -1 8.40202 -1 20H0H1C1 9.50659 9.50659 1 20 1V0Z" fill="#131839" mask="url(#path-10-inside-1_1600_10522)"/>
</g>
<rect x="0.5" y="0.5" width="359" height="259" rx="19.5" stroke="#232D6B"/>
<defs>
<radialGradient id="paint0_radial_1600_10522" cx="0" cy="0" r="1" gradientUnits="userSpaceOnUse" gradientTransform="translate(520.645 -120.769) rotate(115.564) scale(447.499 646.987)">
<stop stop-color="#B5D3FD"/>
<stop offset="0.884" stop-color="#B5D3FD" stop-opacity="0"/>
</radialGradient>
<clipPath id="clip0_1600_10522">
<rect width="360" height="260" rx="20" fill="white"/>
</clipPath>
<clipPath id="clip1_1600_10522">
<rect x="133.205" width="226.794" height="232.7" rx="20" fill="white"/>
</clipPath>
<clipPath id="clip2_1600_10522">
<rect x="133.205" width="227.44" height="232.7" rx="20" fill="white"/>
</clipPath>
<clipPath id="clip3_1600_10522">
<rect width="387.44" height="232.7" fill="white" transform="translate(133.205)"/>
</clipPath>
<clipPath id="clip4_1600_10522">
<rect width="387.44" height="256.25" fill="white" transform="translate(133.205)"/>
</clipPath>
</defs>
</svg>
