<svg width="100" height="29" viewBox="0 0 100 29" fill="none" xmlns="http://www.w3.org/2000/svg">
<path fill-rule="evenodd" clip-rule="evenodd" d="M8.17717 7.18117H5.50596L0 22.6565H2.9506L4.2862 18.929H9.46508L10.8007 22.6565H13.7513L8.17717 7.18117ZM5.23339 16.142L6.84838 11.6309L8.46337 16.142H5.23339ZM24.8722 6.07043H22.1465V12.1352C21.4242 11.6309 20.5315 11.4129 19.5843 11.4129C18.7462 11.4129 17.9693 11.5832 17.3015 11.8558C16.6337 12.1284 16.075 12.5781 15.5775 13.0824C15.1346 13.5798 14.7462 14.1931 14.5213 14.9154C14.2419 15.6377 14.1329 16.36 14.1329 17.1437C14.1329 17.9273 14.2419 18.7042 14.5213 19.372C14.7462 20.0398 15.1346 20.6531 15.5775 21.2118C16.0204 21.7161 16.5792 22.159 17.247 22.4384C17.9148 22.7178 18.6917 22.8813 19.5843 22.8813C20.5315 22.8813 21.4787 22.602 22.2555 22.0432L22.3101 22.6565H24.8722V6.07043ZM21.5945 14.5883C22.0375 15.2016 22.2078 16.033 22.2078 17.1505C22.2078 18.2681 21.983 19.0994 21.5945 19.7127C21.2061 20.326 20.5928 20.6054 19.7002 20.6054C18.8075 20.6054 18.1397 20.2715 17.6422 19.6582C17.1448 19.0449 16.9199 18.2135 16.9199 17.1505C16.9199 16.0875 17.1448 15.2561 17.6422 14.6497C18.1465 14.0364 18.8143 13.7025 19.7002 13.7025C20.5928 13.6479 21.2061 13.9818 21.5945 14.5951V14.5883ZM34.8961 19.5968C34.8961 19.0926 34.8416 18.6497 34.6712 18.3158C34.5077 17.9273 34.3373 17.6479 34.0579 17.3686C33.7785 17.0892 33.4446 16.8643 33.1107 16.7008C32.7223 16.5304 32.3339 16.3669 31.8842 16.2578C31.7751 16.2033 31.6048 16.2033 31.4412 16.1488C31.2164 16.0943 31.1073 16.0398 30.9983 16.0398L30.6099 15.8694C30.2215 15.6991 29.9421 15.5355 29.7172 15.3652C29.4923 15.1948 29.3833 14.9222 29.3833 14.5883C29.3833 14.1999 29.5537 13.866 29.8807 13.6956C30.1601 13.4708 30.6031 13.3617 31.1618 13.3617C31.4412 13.3617 31.7206 13.4163 31.9932 13.4708C32.2726 13.5253 32.552 13.6411 32.8245 13.7502C33.1039 13.8592 33.3288 13.975 33.5468 14.1386C33.7717 14.3021 33.9898 14.418 34.1601 14.5815L34.385 12.2442C34.0511 12.0193 33.5537 11.8558 32.9404 11.6854C32.2726 11.5151 31.6048 11.4606 30.937 11.4606C30.2147 11.4606 29.6014 11.5696 29.0971 11.7399C28.5928 11.9648 28.1499 12.1829 27.8705 12.5168C27.5366 12.8507 27.3118 13.2391 27.1482 13.6275C26.9779 14.0704 26.9233 14.4589 26.9233 14.9631C26.9779 15.6309 27.0937 16.1284 27.3118 16.4691C27.5366 16.803 27.8705 17.1369 28.3135 17.3617C28.9267 17.6411 29.4242 17.8592 29.9284 18.0295C30.3714 18.1999 30.8211 18.3089 31.155 18.418C31.4889 18.527 31.7683 18.6974 31.9319 18.8609C32.1022 19.0313 32.2112 19.2493 32.2112 19.5832C32.2112 19.9171 32.1022 20.1965 31.8228 20.4146C31.5434 20.6394 31.155 20.7485 30.5417 20.7485C30.2624 20.7485 29.9284 20.6939 29.5945 20.6394C29.2606 20.5849 28.9813 20.4691 28.6474 20.36C28.368 20.251 28.0341 20.1352 27.816 20.0261C27.5366 19.9171 27.3186 19.7468 27.1482 19.6377L26.9233 21.975C27.7547 22.5338 28.9813 22.8064 30.6508 22.8064C33.431 22.8609 34.8825 21.7502 34.8825 19.5764L34.8961 19.5968Z" fill="white"/>
<mask id="mask0_1368_10735" style="mask-type:luminance" maskUnits="userSpaceOnUse" x="0" y="6" width="35" height="17">
<path d="M8.17717 7.18117H5.50596L0 22.6565H2.9506L4.2862 18.929H9.46508L10.8007 22.6565H13.7513L8.17717 7.18117ZM5.23339 16.142L6.84838 11.6309L8.46337 16.142H5.23339ZM24.8722 6.07043H22.1465V12.1352C21.4242 11.6309 20.5315 11.4129 19.5843 11.4129C18.7462 11.4129 17.9693 11.5832 17.3015 11.8558C16.6337 12.1284 16.075 12.5781 15.5775 13.0824C15.1346 13.5798 14.7462 14.1931 14.5213 14.9154C14.2419 15.6377 14.1329 16.36 14.1329 17.1437C14.1329 17.9273 14.2419 18.7042 14.5213 19.372C14.7462 20.0398 15.1346 20.6531 15.5775 21.2118C16.0204 21.7161 16.5792 22.159 17.247 22.4384C17.9148 22.7178 18.6917 22.8813 19.5843 22.8813C20.5315 22.8813 21.4787 22.602 22.2555 22.0432L22.3101 22.6565H24.8722V6.07043ZM21.5945 14.5883C22.0375 15.2016 22.2078 16.033 22.2078 17.1505C22.2078 18.2681 21.983 19.0994 21.5945 19.7127C21.2061 20.326 20.5928 20.6054 19.7002 20.6054C18.8075 20.6054 18.1397 20.2715 17.6422 19.6582C17.1448 19.0449 16.9199 18.2135 16.9199 17.1505C16.9199 16.0875 17.1448 15.2561 17.6422 14.6497C18.1465 14.0364 18.8143 13.7025 19.7002 13.7025C20.5928 13.6479 21.2061 13.9818 21.5945 14.5951V14.5883ZM34.8961 19.5968C34.8961 19.0926 34.8416 18.6497 34.6712 18.3158C34.5077 17.9273 34.3373 17.6479 34.0579 17.3686C33.7785 17.0892 33.4446 16.8643 33.1107 16.7008C32.7223 16.5304 32.3339 16.3669 31.8842 16.2578C31.7751 16.2033 31.6048 16.2033 31.4412 16.1488C31.2164 16.0943 31.1073 16.0398 30.9983 16.0398L30.6099 15.8694C30.2215 15.6991 29.9421 15.5355 29.7172 15.3652C29.4923 15.1948 29.3833 14.9222 29.3833 14.5883C29.3833 14.1999 29.5537 13.866 29.8807 13.6956C30.1601 13.4708 30.6031 13.3617 31.1618 13.3617C31.4412 13.3617 31.7206 13.4163 31.9932 13.4708C32.2726 13.5253 32.552 13.6411 32.8245 13.7502C33.1039 13.8592 33.3288 13.975 33.5468 14.1386C33.7717 14.3021 33.9898 14.418 34.1601 14.5815L34.385 12.2442C34.0511 12.0193 33.5537 11.8558 32.9404 11.6854C32.2726 11.5151 31.6048 11.4606 30.937 11.4606C30.2147 11.4606 29.6014 11.5696 29.0971 11.7399C28.5928 11.9648 28.1499 12.1829 27.8705 12.5168C27.5366 12.8507 27.3118 13.2391 27.1482 13.6275C26.9779 14.0704 26.9233 14.4589 26.9233 14.9631C26.9779 15.6309 27.0937 16.1284 27.3118 16.4691C27.5366 16.803 27.8705 17.1369 28.3135 17.3617C28.9267 17.6411 29.4242 17.8592 29.9284 18.0295C30.3714 18.1999 30.8211 18.3089 31.155 18.418C31.4889 18.527 31.7683 18.6974 31.9319 18.8609C32.1022 19.0313 32.2112 19.2493 32.2112 19.5832C32.2112 19.9171 32.1022 20.1965 31.8228 20.4146C31.5434 20.6394 31.155 20.7485 30.5417 20.7485C30.2624 20.7485 29.9284 20.6939 29.5945 20.6394C29.2606 20.5849 28.9813 20.4691 28.6474 20.36C28.368 20.251 28.0341 20.1352 27.816 20.0261C27.5366 19.9171 27.3186 19.7468 27.1482 19.6377L26.9233 21.975C27.7547 22.5338 28.9813 22.8064 30.6508 22.8064C33.431 22.8609 34.8825 21.7502 34.8825 19.5764L34.8961 19.5968Z" fill="white"/>
</mask>
<g mask="url(#mask0_1368_10735)">
<path d="M38.3032 2.66327H-3.40717V26.2817H38.3032V2.66327Z" fill="white"/>
</g>
<path fill-rule="evenodd" clip-rule="evenodd" d="M61.4924 7.18112L58.5418 17.866L54.9779 7.18112H53.029L49.5196 18.1453L46.4055 7.18112H43.4549L47.8501 22.6496H50.5213L53.9694 12.2987L57.4174 22.6496H59.9251L64.4362 7.18112H61.4856H61.4924ZM74.9574 17.1436C74.9574 16.3668 74.8484 15.5832 74.569 14.9154C74.2896 14.2476 73.9557 13.6343 73.4583 13.0823C72.9609 12.578 72.4021 12.1351 71.6798 11.8557C71.012 11.5763 70.2351 11.4128 69.3425 11.4128C68.5111 11.4128 67.7275 11.5832 67.0052 11.8557C66.3373 12.1351 65.7241 12.578 65.2266 13.0823C64.7292 13.5798 64.3953 14.193 64.1159 14.9154C63.8365 15.6377 63.7275 16.36 63.7275 17.1436C63.7275 17.9818 63.8365 18.7041 64.1159 19.4264C64.3953 20.0942 64.7837 20.7075 65.2266 21.2663C65.7241 21.7637 66.2828 22.2135 67.0052 22.4929C67.673 22.7723 68.4498 22.9358 69.3425 22.9358C71.0665 22.9358 72.4021 22.377 73.4038 21.2663C74.46 20.101 74.9643 18.7654 74.9643 17.1505L74.9574 17.1436ZM72.1227 17.1436C72.1227 18.1453 71.8978 18.9835 71.4004 19.6513C70.9029 20.3191 70.2351 20.5985 69.3425 20.5985C68.4498 20.5985 67.782 20.2646 67.2845 19.6513C66.7871 19.038 66.5622 18.2067 66.5622 17.1436C66.5622 16.0806 66.7871 15.2493 67.2845 14.6428C67.7888 14.0295 68.4498 13.6956 69.3425 13.6956C70.2351 13.6956 70.9029 14.0295 71.3459 14.6428C71.9046 15.2561 72.1227 16.0874 72.1227 17.1436ZM82.1942 11.4128C81.0835 11.4128 80.1363 11.8557 79.2437 12.7484L79.1891 11.5832H76.627V22.6564H79.3527V15.0857C79.5162 14.7518 79.7956 14.4724 80.1295 14.3089C80.5179 14.084 80.9063 13.975 81.3561 13.975H82.3578L82.9166 11.4128H82.1942ZM87.5367 20.544C87.3731 20.4895 87.2028 20.4349 87.1482 20.3191C87.0392 20.2101 86.9779 20.0397 86.9779 19.8148C86.9779 19.59 86.9234 19.2561 86.9234 18.8131V6.01587H84.1977V19.9307C84.1977 20.762 84.4225 21.4912 84.92 22.0431C85.3629 22.6019 86.0852 22.8813 87.0324 22.8813H88.0341L88.259 20.5985C87.9796 20.5985 87.7002 20.5985 87.5367 20.544ZM100 6.07038H97.2743V12.1351C96.552 11.6309 95.6593 11.4128 94.7121 11.4128C93.8808 11.4128 93.0971 11.5832 92.4293 11.8557C91.7615 12.1283 91.2028 12.578 90.7053 13.0823C90.2624 13.5798 89.8672 14.193 89.6491 14.9154C89.3697 15.6377 89.2607 16.36 89.2607 17.1436C89.2607 17.9273 89.3697 18.7041 89.6491 19.3719C89.874 20.0397 90.2624 20.653 90.7053 21.2118C91.1482 21.716 91.707 22.159 92.3748 22.4384C93.0426 22.7177 93.8195 22.8813 94.7121 22.8813C95.6593 22.8813 96.6065 22.6019 97.3833 22.0431L97.4379 22.6564H100V6.07038ZM96.7769 14.5883C97.2198 15.2016 97.3902 16.0329 97.3902 17.1505C97.3902 18.268 97.1653 19.0993 96.7769 19.7126C96.3339 20.3259 95.7207 20.6598 94.8825 20.6598C93.9898 20.6598 93.322 20.3259 92.8246 19.7126C92.3203 19.0993 92.1023 18.268 92.1023 17.2118C92.1023 16.1556 92.3271 15.3174 92.8246 14.7109C93.322 14.0976 93.9898 13.7637 94.8825 13.7637C95.7138 13.6547 96.3271 13.9886 96.7769 14.6019V14.5883Z" fill="white"/>
<mask id="mask1_1368_10735" style="mask-type:luminance" maskUnits="userSpaceOnUse" x="43" y="6" width="57" height="17">
<path d="M61.4924 7.18112L58.5418 17.866L54.9779 7.18112H53.029L49.5196 18.1453L46.4055 7.18112H43.4549L47.8501 22.6496H50.5213L53.9694 12.2987L57.4174 22.6496H59.9251L64.4362 7.18112H61.4856H61.4924ZM74.9574 17.1436C74.9574 16.3668 74.8484 15.5832 74.569 14.9154C74.2896 14.2476 73.9557 13.6343 73.4583 13.0823C72.9609 12.578 72.4021 12.1351 71.6798 11.8557C71.012 11.5763 70.2351 11.4128 69.3425 11.4128C68.5111 11.4128 67.7275 11.5832 67.0052 11.8557C66.3373 12.1351 65.7241 12.578 65.2266 13.0823C64.7292 13.5798 64.3953 14.193 64.1159 14.9154C63.8365 15.6377 63.7275 16.36 63.7275 17.1436C63.7275 17.9818 63.8365 18.7041 64.1159 19.4264C64.3953 20.0942 64.7837 20.7075 65.2266 21.2663C65.7241 21.7637 66.2828 22.2135 67.0052 22.4929C67.673 22.7723 68.4498 22.9358 69.3425 22.9358C71.0665 22.9358 72.4021 22.377 73.4038 21.2663C74.46 20.101 74.9643 18.7654 74.9643 17.1505L74.9574 17.1436ZM72.1227 17.1436C72.1227 18.1453 71.8978 18.9835 71.4004 19.6513C70.9029 20.3191 70.2351 20.5985 69.3425 20.5985C68.4498 20.5985 67.782 20.2646 67.2845 19.6513C66.7871 19.038 66.5622 18.2067 66.5622 17.1436C66.5622 16.0806 66.7871 15.2493 67.2845 14.6428C67.7888 14.0295 68.4498 13.6956 69.3425 13.6956C70.2351 13.6956 70.9029 14.0295 71.3459 14.6428C71.9046 15.2561 72.1227 16.0874 72.1227 17.1436ZM82.1942 11.4128C81.0835 11.4128 80.1363 11.8557 79.2437 12.7484L79.1891 11.5832H76.627V22.6564H79.3527V15.0857C79.5162 14.7518 79.7956 14.4724 80.1295 14.3089C80.5179 14.084 80.9063 13.975 81.3561 13.975H82.3578L82.9166 11.4128H82.1942ZM87.5367 20.544C87.3731 20.4895 87.2028 20.4349 87.1482 20.3191C87.0392 20.2101 86.9779 20.0397 86.9779 19.8148C86.9779 19.59 86.9234 19.2561 86.9234 18.8131V6.01587H84.1977V19.9307C84.1977 20.762 84.4225 21.4912 84.92 22.0431C85.3629 22.6019 86.0852 22.8813 87.0324 22.8813H88.0341L88.259 20.5985C87.9796 20.5985 87.7002 20.5985 87.5367 20.544ZM100 6.07038H97.2743V12.1351C96.552 11.6309 95.6593 11.4128 94.7121 11.4128C93.8808 11.4128 93.0971 11.5832 92.4293 11.8557C91.7615 12.1283 91.2028 12.578 90.7053 13.0823C90.2624 13.5798 89.8672 14.193 89.6491 14.9154C89.3697 15.6377 89.2607 16.36 89.2607 17.1436C89.2607 17.9273 89.3697 18.7041 89.6491 19.3719C89.874 20.0397 90.2624 20.653 90.7053 21.2118C91.1482 21.716 91.707 22.159 92.3748 22.4384C93.0426 22.7177 93.8195 22.8813 94.7121 22.8813C95.6593 22.8813 96.6065 22.6019 97.3833 22.0431L97.4379 22.6564H100V6.07038ZM96.7769 14.5883C97.2198 15.2016 97.3902 16.0329 97.3902 17.1505C97.3902 18.268 97.1653 19.0993 96.7769 19.7126C96.3339 20.3259 95.7207 20.6598 94.8825 20.6598C93.9898 20.6598 93.322 20.3259 92.8246 19.7126C92.3203 19.0993 92.1023 18.268 92.1023 17.2118C92.1023 16.1556 92.3271 15.3174 92.8246 14.7109C93.322 14.0976 93.9898 13.7637 94.8825 13.7637C95.7138 13.6547 96.3271 13.9886 96.7769 14.6019V14.5883Z" fill="white"/>
</mask>
<g mask="url(#mask1_1368_10735)">
<path d="M103.407 2.6087H40.0545V26.3429H103.407V2.6087Z" fill="white"/>
</g>
<path fill-rule="evenodd" clip-rule="evenodd" d="M39.8433 14.7519C39.8433 14.527 39.7888 14.3089 39.7343 14.0841C39.6797 13.8592 39.5707 13.6956 39.4004 13.5798C39.2368 13.4094 39.0665 13.3004 38.9029 13.2459C38.678 13.1369 38.46 13.1369 38.2351 13.1369C38.0102 13.1369 37.7922 13.1914 37.5673 13.2459C37.3424 13.3549 37.1789 13.4708 37.063 13.5798C36.8995 13.7502 36.8382 13.9137 36.7291 14.0841C36.6746 14.3089 36.6201 14.527 36.6201 14.7519C36.6201 14.9767 36.6746 15.1948 36.7291 15.4197C36.7837 15.6445 36.8995 15.8081 37.063 15.9239C37.2334 16.0875 37.3969 16.2033 37.5673 16.2578C37.7922 16.3669 38.0102 16.3669 38.2351 16.3669C38.7394 16.3669 39.1278 16.1965 39.4004 15.8626C39.7343 15.5832 39.8433 15.1948 39.8433 14.7519ZM39.0119 14.7519C39.0119 15.0313 38.9574 15.3106 38.7871 15.4742C38.6167 15.6377 38.4532 15.7536 38.1738 15.7536C37.8944 15.7536 37.7308 15.6445 37.5605 15.4742C37.3901 15.3038 37.3356 15.0313 37.3356 14.7519C37.3356 14.4725 37.3901 14.1931 37.5605 14.0295C37.7308 13.866 37.8944 13.7502 38.1738 13.7502C38.3987 13.7502 38.6167 13.8592 38.7326 14.0295C38.9574 14.1999 39.0119 14.418 39.0119 14.7519ZM42.0716 13.1369H41.3492V12.6939C41.3492 12.4691 41.3492 12.36 41.4038 12.3055C41.4583 12.251 41.5128 12.1965 41.6286 12.1965H41.9625L42.017 11.5287C41.7377 11.5287 41.5128 11.4742 41.2947 11.4742C41.1857 11.4742 41.0699 11.4742 40.9608 11.5287C40.8518 11.5832 40.7973 11.6377 40.736 11.6991C40.6746 11.7604 40.6269 11.8694 40.5656 11.9784C40.5111 12.0875 40.5111 12.2033 40.5111 12.3123V13.0892H40.1227L40.0682 13.757H40.5111V16.3192H41.2879V13.757H42.0102V13.1437H42.0647L42.0716 13.1369Z" fill="white"/>
<mask id="mask2_1368_10735" style="mask-type:luminance" maskUnits="userSpaceOnUse" x="36" y="11" width="7" height="6">
<path d="M39.8433 14.7519C39.8433 14.527 39.7888 14.3089 39.7343 14.0841C39.6797 13.8592 39.5707 13.6956 39.4004 13.5798C39.2368 13.4094 39.0665 13.3004 38.9029 13.2459C38.678 13.1369 38.46 13.1369 38.2351 13.1369C38.0102 13.1369 37.7922 13.1914 37.5673 13.2459C37.3424 13.3549 37.1789 13.4708 37.063 13.5798C36.8995 13.7502 36.8382 13.9137 36.7291 14.0841C36.6746 14.3089 36.6201 14.527 36.6201 14.7519C36.6201 14.9767 36.6746 15.1948 36.7291 15.4197C36.7837 15.6445 36.8995 15.8081 37.063 15.9239C37.2334 16.0875 37.3969 16.2033 37.5673 16.2578C37.7922 16.3669 38.0102 16.3669 38.2351 16.3669C38.7394 16.3669 39.1278 16.1965 39.4004 15.8626C39.7343 15.5832 39.8433 15.1948 39.8433 14.7519ZM39.0119 14.7519C39.0119 15.0313 38.9574 15.3106 38.7871 15.4742C38.6167 15.6377 38.4532 15.7536 38.1738 15.7536C37.8944 15.7536 37.7308 15.6445 37.5605 15.4742C37.3901 15.3038 37.3356 15.0313 37.3356 14.7519C37.3356 14.4725 37.3901 14.1931 37.5605 14.0295C37.7308 13.866 37.8944 13.7502 38.1738 13.7502C38.3987 13.7502 38.6167 13.8592 38.7326 14.0295C38.9574 14.1999 39.0119 14.418 39.0119 14.7519ZM42.0716 13.1369H41.3492V12.6939C41.3492 12.4691 41.3492 12.36 41.4038 12.3055C41.4583 12.251 41.5128 12.1965 41.6286 12.1965H41.9625L42.017 11.5287C41.7377 11.5287 41.5128 11.4742 41.2947 11.4742C41.1857 11.4742 41.0699 11.4742 40.9608 11.5287C40.8518 11.5832 40.7973 11.6377 40.736 11.6991C40.6746 11.7604 40.6269 11.8694 40.5656 11.9784C40.5111 12.0875 40.5111 12.2033 40.5111 12.3123V13.0892H40.1227L40.0682 13.757H40.5111V16.3192H41.2879V13.757H42.0102V13.1437H42.0647L42.0716 13.1369Z" fill="white"/>
</mask>
<g mask="url(#mask2_1368_10735)">
<path d="M45.4787 8.06018H33.213V19.774H45.4787V8.06018Z" fill="white"/>
</g>
<path fill-rule="evenodd" clip-rule="evenodd" d="M38.2896 21.9886H38.0102C37.9557 21.9886 37.9012 21.9886 37.8398 21.9341C37.7853 21.8796 37.7853 21.8251 37.7853 21.7638V20.0397H38.5076V19.3719H37.7853V18.5951L37.0085 18.6496V19.3719H36.6201L36.5656 20.0397H37.0085V21.8183C37.0085 21.9273 37.0085 22.0431 37.063 22.1522C37.1175 22.2612 37.172 22.3225 37.2334 22.4316C37.2879 22.4861 37.4037 22.5406 37.5127 22.6019C37.6218 22.6564 37.7376 22.6564 37.9012 22.6564H38.4599L38.5144 21.9886H38.2896ZM41.8466 20.8711C41.8466 19.8694 41.4037 19.3651 40.511 19.3651C40.2862 19.3651 40.0681 19.4196 39.8432 19.59V17.8115H39.0664V22.5951H39.8432V20.2578C40.0068 20.0943 40.1771 19.9784 40.4565 19.9784C40.6814 19.9784 40.8449 20.0329 40.954 20.2033C41.063 20.3736 41.1243 20.5917 41.1243 20.8711V22.5951H41.9012V20.8711H41.8466ZM45.3015 20.7075C45.3015 20.4827 45.247 20.3191 45.1925 20.1488C45.138 19.9784 45.0221 19.8149 44.9131 19.7058C44.8041 19.5968 44.6337 19.481 44.4702 19.4265C44.3066 19.3719 44.1363 19.3174 43.9114 19.3174C43.6865 19.3174 43.4684 19.3719 43.2436 19.4265C43.0732 19.5355 42.9097 19.6513 42.7393 19.7604C42.6303 19.9307 42.5144 20.0943 42.4599 20.2578C42.4054 20.4827 42.3509 20.6462 42.3509 20.9256C42.3509 21.1505 42.4054 21.3685 42.4599 21.5934C42.5144 21.8183 42.6303 21.9818 42.7938 22.0977C42.9642 22.268 43.1277 22.3771 43.3526 22.4316C43.5775 22.5406 43.7955 22.5406 44.0749 22.5406C44.4633 22.5406 44.8518 22.4861 45.1311 22.3157V21.7024C45.0766 21.7569 44.9676 21.7569 44.9063 21.8115C44.8449 21.866 44.7359 21.866 44.6269 21.866C44.5178 21.866 44.4565 21.9205 44.3475 21.9205H44.1226C43.8977 21.9205 43.6797 21.866 43.5093 21.6956C43.339 21.5253 43.2299 21.3617 43.1754 21.0823H45.2334C45.2879 20.9733 45.2879 20.8029 45.2879 20.6939L45.3015 20.7075ZM43.4071 20.1488C43.5161 20.0397 43.6865 19.9784 43.9046 19.9784C44.1226 19.9784 44.2385 20.0329 44.3475 20.1488C44.4565 20.2578 44.511 20.4282 44.511 20.5917H43.2299C43.2299 20.4213 43.2845 20.2578 43.4003 20.1488H43.4071Z" fill="white"/>
<mask id="mask3_1368_10735" style="mask-type:luminance" maskUnits="userSpaceOnUse" x="36" y="17" width="10" height="6">
<path d="M38.2896 21.9886H38.0102C37.9557 21.9886 37.9012 21.9886 37.8398 21.9341C37.7853 21.8796 37.7853 21.8251 37.7853 21.7638V20.0397H38.5076V19.3719H37.7853V18.5951L37.0085 18.6496V19.3719H36.6201L36.5656 20.0397H37.0085V21.8183C37.0085 21.9273 37.0085 22.0431 37.063 22.1522C37.1175 22.2612 37.172 22.3225 37.2334 22.4316C37.2879 22.4861 37.4037 22.5406 37.5127 22.6019C37.6218 22.6564 37.7376 22.6564 37.9012 22.6564H38.4599L38.5144 21.9886H38.2896ZM41.8466 20.8711C41.8466 19.8694 41.4037 19.3651 40.511 19.3651C40.2862 19.3651 40.0681 19.4196 39.8432 19.59V17.8115H39.0664V22.5951H39.8432V20.2578C40.0068 20.0943 40.1771 19.9784 40.4565 19.9784C40.6814 19.9784 40.8449 20.0329 40.954 20.2033C41.063 20.3736 41.1243 20.5917 41.1243 20.8711V22.5951H41.9012V20.8711H41.8466ZM45.3015 20.7075C45.3015 20.4827 45.247 20.3191 45.1925 20.1488C45.138 19.9784 45.0221 19.8149 44.9131 19.7058C44.8041 19.5968 44.6337 19.481 44.4702 19.4265C44.3066 19.3719 44.1363 19.3174 43.9114 19.3174C43.6865 19.3174 43.4684 19.3719 43.2436 19.4265C43.0732 19.5355 42.9097 19.6513 42.7393 19.7604C42.6303 19.9307 42.5144 20.0943 42.4599 20.2578C42.4054 20.4827 42.3509 20.6462 42.3509 20.9256C42.3509 21.1505 42.4054 21.3685 42.4599 21.5934C42.5144 21.8183 42.6303 21.9818 42.7938 22.0977C42.9642 22.268 43.1277 22.3771 43.3526 22.4316C43.5775 22.5406 43.7955 22.5406 44.0749 22.5406C44.4633 22.5406 44.8518 22.4861 45.1311 22.3157V21.7024C45.0766 21.7569 44.9676 21.7569 44.9063 21.8115C44.8449 21.866 44.7359 21.866 44.6269 21.866C44.5178 21.866 44.4565 21.9205 44.3475 21.9205H44.1226C43.8977 21.9205 43.6797 21.866 43.5093 21.6956C43.339 21.5253 43.2299 21.3617 43.1754 21.0823H45.2334C45.2879 20.9733 45.2879 20.8029 45.2879 20.6939L45.3015 20.7075ZM43.4071 20.1488C43.5161 20.0397 43.6865 19.9784 43.9046 19.9784C44.1226 19.9784 44.2385 20.0329 44.3475 20.1488C44.4565 20.2578 44.511 20.4282 44.511 20.5917H43.2299C43.2299 20.4213 43.2845 20.2578 43.4003 20.1488H43.4071Z" fill="white"/>
</mask>
<g mask="url(#mask3_1368_10735)">
<path d="M48.7086 14.4043H33.1584V26.0568H48.7086V14.4043Z" fill="white"/>
</g>
</svg>
