<svg width="280" height="38" viewBox="0 0 280 38" fill="none" xmlns="http://www.w3.org/2000/svg">
<g clip-path="url(#clip0_807_451)">
<path d="M193.317 14.639C193.317 10.0465 190.447 6.74561 185.137 6.74561H167.628V30.5693H173.369V22.3889H180.114L186.716 30.5693H193.174V29.9952L186.716 22.2453C190.878 21.3843 193.317 18.3704 193.317 14.639ZM184.419 17.5093H173.369V11.6252H184.419C186.429 11.6252 187.72 12.7733 187.72 14.639C187.864 16.5047 186.572 17.5093 184.419 17.5093Z" fill="black"/>
<path d="M280.001 6.60205H274.691V15.6436H260.196V6.60205H254.455V30.4257H260.196V21.0972H274.691V30.4257H280.001V6.60205Z" fill="black"/>
<path d="M152.271 6.60205L145.956 26.5508H145.669L139.211 6.60205H129.021V30.4257H134.475V10.9075H134.762L141.077 30.4257H149.831L156.29 10.9075H156.577V30.4257H162.174V6.60205H152.271Z" fill="black"/>
<path d="M89.8403 16.361C87.831 16.2175 84.0996 15.7869 81.9469 15.6434C79.9376 15.4999 78.7895 14.7823 78.7895 13.4907C78.7895 12.199 80.0812 11.1944 84.9607 11.1944C89.2662 11.1944 93.2846 12.199 96.8725 13.7777V8.46761C93.4282 6.74541 89.5532 6.02783 84.6737 6.02783C77.9284 6.02783 73.1924 8.89816 73.1924 13.6342C73.1924 17.6526 75.9192 19.9489 81.5163 20.523C83.5255 20.81 86.9699 21.097 89.2662 21.2405C91.8495 21.3841 92.5671 22.2452 92.5671 23.3933C92.5671 24.972 90.7014 25.9766 86.2523 25.9766C81.6598 25.9766 76.9238 24.3979 73.4794 22.3887V27.8423C76.2062 29.708 80.7987 31.1432 86.1088 31.1432C93.4282 31.1432 98.1642 28.2728 98.1642 23.2498C98.1642 19.3748 95.7244 16.9351 89.8403 16.361Z" fill="black"/>
<path d="M102.039 6.60205V30.4257H124.14V25.5462H107.492V20.6666H123.853V15.7871H107.492V11.4816H124.14V6.60205H102.039Z" fill="black"/>
<path d="M242.542 16.361C240.533 16.2175 236.802 15.7869 234.649 15.6434C232.64 15.4999 231.492 14.7823 231.492 13.4907C231.492 12.199 232.783 11.1944 237.663 11.1944C241.968 11.1944 245.987 12.0555 249.575 13.7777V8.46761C246.13 6.74541 242.255 6.02783 237.376 6.02783C230.631 6.02783 225.895 8.89816 225.895 13.6342C225.895 17.6526 228.621 19.9489 234.218 20.523C236.228 20.81 239.672 21.097 241.968 21.2405C244.552 21.3841 245.269 22.2452 245.269 23.3933C245.269 24.972 243.404 25.9766 238.955 25.9766C234.362 25.9766 229.626 24.3979 226.182 22.3887V27.8423C228.908 29.708 233.501 31.1432 238.811 31.1432C246.13 31.1432 250.866 28.2728 250.866 23.2498C250.866 19.3748 248.283 16.9351 242.542 16.361Z" fill="black"/>
<path d="M216.278 6.60205V18.8009C216.278 23.3934 213.408 25.9767 209.246 25.9767C204.94 25.9767 202.213 23.537 202.213 18.8009V6.60205H196.473V18.2269C196.473 26.8378 201.926 31.1433 209.246 31.1433C216.421 31.1433 221.875 26.9813 221.875 18.5139V6.60205H216.278Z" fill="black"/>
<path d="M53.675 18.3701C53.675 19.5182 53.101 19.6617 51.6658 19.6617C50.0871 19.6617 49.8001 19.3747 49.6566 18.2266C49.3696 15.2127 47.3603 12.6294 43.9159 12.4859C42.9113 12.3424 42.6243 12.0554 42.6243 10.6202C42.6243 9.32855 42.7678 8.75449 43.7724 8.75449C49.5131 8.898 53.675 13.634 53.675 18.3701ZM62.1425 18.3701C62.1425 9.47207 56.1148 0 42.0502 0H14.3516C13.7775 0 13.347 0.287032 13.347 0.861097C13.347 1.14813 13.4905 1.43516 13.7776 1.57868C14.7822 2.43977 16.2173 3.30087 18.2266 4.30548C20.0923 5.3101 21.6709 5.88416 23.1061 6.45823C23.6802 6.74526 23.9672 7.03229 23.9672 7.31932C23.9672 7.74987 23.6802 8.18042 22.9626 8.18042H1.00461C0.287032 8.0369 0 8.46745 0 8.898C0 9.32855 0.143516 9.61558 0.430548 9.90261C2.15274 11.7683 5.02307 14.0646 9.18503 16.6479C12.7729 18.9441 17.3655 21.3839 20.9534 23.1061C21.5274 23.3931 21.8145 23.6802 21.8145 24.1107C21.8145 24.5413 21.5274 24.8283 20.8098 24.8283H10.6202C10.0461 24.8283 9.7591 25.1153 9.7591 25.5459C9.7591 25.8329 9.90261 26.1199 10.1896 26.407C12.4859 28.5597 16.2173 30.7125 21.0969 32.8652C27.6986 35.592 34.3004 37.3142 41.7632 37.3142C55.9713 37.3142 62.1425 26.694 62.1425 18.3701ZM43.6289 31.143C36.7401 31.143 30.856 25.5459 30.856 18.3701C30.856 11.4813 36.5966 5.88416 43.6289 5.88416C50.8047 5.88416 56.4018 11.4813 56.4018 18.3701C56.4018 25.4024 50.8047 31.143 43.6289 31.143Z" fill="#FF642D"/>
</g>
<defs>
<clipPath id="clip0_807_451">
<rect width="280" height="37.3142" fill="white"/>
</clipPath>
</defs>
</svg>
