<svg width="70" height="22" viewBox="0 0 70 22" fill="none" xmlns="http://www.w3.org/2000/svg">
<path d="M0.000156276 19.26L7.74016 11.04C8.38016 10.36 8.90016 9.74999 9.30016 9.20999C9.70016 8.66999 9.99016 8.15999 10.1702 7.67999C10.3502 7.19999 10.4402 6.70999 10.4402 6.20999C10.4402 5.26999 10.1302 4.53999 9.51016 4.01999C8.91016 3.47999 8.14016 3.20999 7.20016 3.20999C6.20016 3.20999 5.32016 3.45999 4.56016 3.95999C3.80016 4.45999 3.12016 5.23999 2.52016 6.29999L0.120156 4.31999C0.940156 2.89999 1.95016 1.82999 3.15016 1.10999C4.35016 0.369987 5.74016 -1.33514e-05 7.32016 -1.33514e-05C8.62016 -1.33514e-05 9.76016 0.259987 10.7402 0.779987C11.7202 1.29999 12.4802 2.02999 13.0202 2.96999C13.5602 3.88999 13.8302 4.95999 13.8302 6.17999C13.8302 7.05999 13.7202 7.84999 13.5002 8.54999C13.3002 9.22999 12.9502 9.91999 12.4502 10.62C11.9502 11.3 11.2602 12.1 10.3802 13.02L4.44016 19.17L0.000156276 19.26ZM0.000156276 21.3V19.26L2.97016 18.21H14.2502V21.3H0.000156276ZM25.2606 21.6C23.6806 21.6 22.2306 21.16 20.9106 20.28C19.6106 19.38 18.5706 18.12 17.7906 16.5C17.0106 14.88 16.6206 12.97 16.6206 10.77C16.6206 8.56999 17.0006 6.66999 17.7606 5.06999C18.5406 3.44999 19.5806 2.19999 20.8806 1.31999C22.1806 0.439987 23.6206 -1.33514e-05 25.2006 -1.33514e-05C26.8006 -1.33514e-05 28.2506 0.439987 29.5506 1.31999C30.8506 2.19999 31.8806 3.44999 32.6406 5.06999C33.4206 6.66999 33.8106 8.57999 33.8106 10.8C33.8106 13 33.4206 14.91 32.6406 16.53C31.8806 18.15 30.8506 19.4 29.5506 20.28C28.2706 21.16 26.8406 21.6 25.2606 21.6ZM25.2006 18.36C26.2406 18.36 27.1406 18.08 27.9006 17.52C28.6606 16.96 29.2506 16.12 29.6706 15C30.1106 13.88 30.3306 12.47 30.3306 10.77C30.3306 9.08999 30.1106 7.68999 29.6706 6.56999C29.2506 5.44999 28.6506 4.61999 27.8706 4.07999C27.1106 3.51999 26.2206 3.23999 25.2006 3.23999C24.1806 3.23999 23.2806 3.51999 22.5006 4.07999C21.7406 4.61999 21.1506 5.44999 20.7306 6.56999C20.3106 7.66999 20.1006 9.06999 20.1006 10.77C20.1006 12.47 20.3106 13.88 20.7306 15C21.1506 16.12 21.7406 16.96 22.5006 17.52C23.2806 18.08 24.1806 18.36 25.2006 18.36ZM44.9188 21.6C43.3388 21.6 41.8888 21.16 40.5688 20.28C39.2688 19.38 38.2288 18.12 37.4488 16.5C36.6688 14.88 36.2788 12.97 36.2788 10.77C36.2788 8.56999 36.6588 6.66999 37.4188 5.06999C38.1988 3.44999 39.2388 2.19999 40.5388 1.31999C41.8388 0.439987 43.2788 -1.33514e-05 44.8588 -1.33514e-05C46.4588 -1.33514e-05 47.9088 0.439987 49.2088 1.31999C50.5088 2.19999 51.5388 3.44999 52.2988 5.06999C53.0788 6.66999 53.4688 8.57999 53.4688 10.8C53.4688 13 53.0788 14.91 52.2988 16.53C51.5388 18.15 50.5088 19.4 49.2088 20.28C47.9288 21.16 46.4988 21.6 44.9188 21.6ZM44.8588 18.36C45.8988 18.36 46.7988 18.08 47.5588 17.52C48.3188 16.96 48.9088 16.12 49.3288 15C49.7688 13.88 49.9888 12.47 49.9888 10.77C49.9888 9.08999 49.7688 7.68999 49.3288 6.56999C48.9088 5.44999 48.3088 4.61999 47.5288 4.07999C46.7688 3.51999 45.8788 3.23999 44.8588 3.23999C43.8388 3.23999 42.9388 3.51999 42.1588 4.07999C41.3988 4.61999 40.8088 5.44999 40.3888 6.56999C39.9688 7.66999 39.7588 9.06999 39.7588 10.77C39.7588 12.47 39.9688 13.88 40.3888 15C40.8088 16.12 41.3988 16.96 42.1588 17.52C42.9388 18.08 43.8388 18.36 44.8588 18.36ZM56.297 12.75V9.74999H69.527V12.75H56.297ZM61.397 4.31999H64.457V18.15H61.397V4.31999Z" fill="url(#paint0_radial_956_837)"/>
<path d="M0.000156276 19.26L7.74016 11.04C8.38016 10.36 8.90016 9.74999 9.30016 9.20999C9.70016 8.66999 9.99016 8.15999 10.1702 7.67999C10.3502 7.19999 10.4402 6.70999 10.4402 6.20999C10.4402 5.26999 10.1302 4.53999 9.51016 4.01999C8.91016 3.47999 8.14016 3.20999 7.20016 3.20999C6.20016 3.20999 5.32016 3.45999 4.56016 3.95999C3.80016 4.45999 3.12016 5.23999 2.52016 6.29999L0.120156 4.31999C0.940156 2.89999 1.95016 1.82999 3.15016 1.10999C4.35016 0.369987 5.74016 -1.33514e-05 7.32016 -1.33514e-05C8.62016 -1.33514e-05 9.76016 0.259987 10.7402 0.779987C11.7202 1.29999 12.4802 2.02999 13.0202 2.96999C13.5602 3.88999 13.8302 4.95999 13.8302 6.17999C13.8302 7.05999 13.7202 7.84999 13.5002 8.54999C13.3002 9.22999 12.9502 9.91999 12.4502 10.62C11.9502 11.3 11.2602 12.1 10.3802 13.02L4.44016 19.17L0.000156276 19.26ZM0.000156276 21.3V19.26L2.97016 18.21H14.2502V21.3H0.000156276ZM25.2606 21.6C23.6806 21.6 22.2306 21.16 20.9106 20.28C19.6106 19.38 18.5706 18.12 17.7906 16.5C17.0106 14.88 16.6206 12.97 16.6206 10.77C16.6206 8.56999 17.0006 6.66999 17.7606 5.06999C18.5406 3.44999 19.5806 2.19999 20.8806 1.31999C22.1806 0.439987 23.6206 -1.33514e-05 25.2006 -1.33514e-05C26.8006 -1.33514e-05 28.2506 0.439987 29.5506 1.31999C30.8506 2.19999 31.8806 3.44999 32.6406 5.06999C33.4206 6.66999 33.8106 8.57999 33.8106 10.8C33.8106 13 33.4206 14.91 32.6406 16.53C31.8806 18.15 30.8506 19.4 29.5506 20.28C28.2706 21.16 26.8406 21.6 25.2606 21.6ZM25.2006 18.36C26.2406 18.36 27.1406 18.08 27.9006 17.52C28.6606 16.96 29.2506 16.12 29.6706 15C30.1106 13.88 30.3306 12.47 30.3306 10.77C30.3306 9.08999 30.1106 7.68999 29.6706 6.56999C29.2506 5.44999 28.6506 4.61999 27.8706 4.07999C27.1106 3.51999 26.2206 3.23999 25.2006 3.23999C24.1806 3.23999 23.2806 3.51999 22.5006 4.07999C21.7406 4.61999 21.1506 5.44999 20.7306 6.56999C20.3106 7.66999 20.1006 9.06999 20.1006 10.77C20.1006 12.47 20.3106 13.88 20.7306 15C21.1506 16.12 21.7406 16.96 22.5006 17.52C23.2806 18.08 24.1806 18.36 25.2006 18.36ZM44.9188 21.6C43.3388 21.6 41.8888 21.16 40.5688 20.28C39.2688 19.38 38.2288 18.12 37.4488 16.5C36.6688 14.88 36.2788 12.97 36.2788 10.77C36.2788 8.56999 36.6588 6.66999 37.4188 5.06999C38.1988 3.44999 39.2388 2.19999 40.5388 1.31999C41.8388 0.439987 43.2788 -1.33514e-05 44.8588 -1.33514e-05C46.4588 -1.33514e-05 47.9088 0.439987 49.2088 1.31999C50.5088 2.19999 51.5388 3.44999 52.2988 5.06999C53.0788 6.66999 53.4688 8.57999 53.4688 10.8C53.4688 13 53.0788 14.91 52.2988 16.53C51.5388 18.15 50.5088 19.4 49.2088 20.28C47.9288 21.16 46.4988 21.6 44.9188 21.6ZM44.8588 18.36C45.8988 18.36 46.7988 18.08 47.5588 17.52C48.3188 16.96 48.9088 16.12 49.3288 15C49.7688 13.88 49.9888 12.47 49.9888 10.77C49.9888 9.08999 49.7688 7.68999 49.3288 6.56999C48.9088 5.44999 48.3088 4.61999 47.5288 4.07999C46.7688 3.51999 45.8788 3.23999 44.8588 3.23999C43.8388 3.23999 42.9388 3.51999 42.1588 4.07999C41.3988 4.61999 40.8088 5.44999 40.3888 6.56999C39.9688 7.66999 39.7588 9.06999 39.7588 10.77C39.7588 12.47 39.9688 13.88 40.3888 15C40.8088 16.12 41.3988 16.96 42.1588 17.52C42.9388 18.08 43.8388 18.36 44.8588 18.36ZM56.297 12.75V9.74999H69.527V12.75H56.297ZM61.397 4.31999H64.457V18.15H61.397V4.31999Z" fill="#F7F7F7" fill-opacity="0.5"/>
<defs>
<radialGradient id="paint0_radial_956_837" cx="0" cy="0" r="1" gradientUnits="userSpaceOnUse" gradientTransform="translate(35.1602 -7.76559) rotate(90) scale(37.0656 36.6582)">
<stop stop-color="#FF5600"/>
<stop offset="1" stop-color="#9600FF"/>
</radialGradient>
</defs>
</svg>
